<?xml version="1.0" standalone="no"?>
<!DOCTYPE svg PUBLIC "-//W3C//DTD SVG 20010904//EN"
 "http://www.w3.org/TR/2001/REC-SVG-20010904/DTD/svg10.dtd">
<svg version="1.0" xmlns="http://www.w3.org/2000/svg"
 width="500.000000pt" height="500.000000pt" viewBox="0 0 500.000000 500.000000"
 preserveAspectRatio="xMidYMid meet">

<g transform="translate(0.000000,500.000000) scale(0.100000,-0.100000)"
fill="#000000" stroke="none">
<path d="M2515 4214 c-3 -20 -2 -41 3 -46 6 -6 63 -14 128 -19 66 -5 132 -14
148 -19 16 -6 41 -10 56 -10 15 0 52 -7 81 -16 85 -26 162 -51 194 -65 17 -6
46 -18 65 -26 57 -24 212 -103 220 -113 3 -4 12 -10 20 -14 64 -30 194 -133
290 -229 79 -79 184 -214 249 -320 53 -87 131 -250 131 -274 0 -11 4 -23 9
-28 6 -6 15 -30 21 -55 6 -25 18 -72 26 -105 43 -173 55 -415 29 -595 -21
-147 -35 -223 -46 -242 -5 -10 -9 -29 -9 -42 0 -21 6 -26 34 -32 45 -8 54 -1
62 44 4 20 9 42 13 47 13 21 32 144 38 235 2 52 9 99 14 105 12 12 12 188 0
201 -5 5 -12 52 -14 104 -5 95 -21 198 -37 235 -5 11 -12 36 -16 55 -3 19 -10
41 -14 50 -5 8 -16 38 -25 65 -46 133 -161 335 -264 465 -114 144 -307 315
-451 401 -113 68 -325 169 -353 169 -9 0 -18 4 -21 9 -3 5 -23 12 -43 16 -21
4 -42 10 -48 13 -24 16 -370 71 -451 72 -29 0 -32 -4 -39 -36z"/>
<path d="M1960 4163 c-8 -2 -24 -9 -35 -13 -11 -5 -44 -19 -74 -30 -87 -34
-222 -99 -269 -131 -23 -16 -47 -29 -52 -29 -4 0 -10 -3 -12 -7 -1 -5 -30 -26
-63 -48 -79 -53 -329 -300 -398 -395 -55 -75 -87 -130 -159 -270 -45 -88 -58
-149 -35 -169 19 -15 47 -11 58 9 4 8 33 67 64 130 31 63 63 122 71 131 8 8
14 19 14 23 0 4 31 49 68 99 83 111 178 209 337 346 82 72 295 186 445 241 38
13 103 41 108 46 2 1 -2 19 -9 38 -13 35 -25 41 -59 29z"/>
<path d="M2523 4074 c-14 -6 -17 -62 -5 -81 4 -7 53 -16 112 -22 156 -16 264
-32 275 -41 6 -4 29 -11 52 -15 24 -4 45 -11 49 -16 3 -5 12 -9 21 -9 28 0
189 -75 280 -131 97 -59 165 -114 280 -223 l100 -95 22 22 c11 13 21 31 21 41
0 22 -153 177 -235 238 -126 93 -379 228 -428 228 -9 0 -18 4 -21 9 -4 5 -24
12 -46 16 -22 4 -42 11 -46 16 -3 5 -15 9 -26 9 -12 0 -49 6 -82 14 -105 24
-303 49 -323 40z"/>
<path d="M2365 3880 c-66 -4 -136 -12 -155 -18 -19 -6 -62 -18 -95 -27 -69
-19 -116 -36 -201 -76 -34 -16 -67 -29 -73 -29 -6 0 -11 -4 -11 -10 0 -5 -6
-10 -12 -10 -31 0 -220 -141 -309 -229 -167 -168 -270 -326 -334 -516 -9 -27
-20 -57 -25 -66 -5 -9 -12 -38 -15 -65 -4 -27 -11 -54 -16 -60 -5 -6 -14 -81
-21 -165 -9 -129 -9 -174 4 -279 16 -125 32 -207 47 -245 5 -11 17 -40 26 -65
34 -86 46 -115 61 -143 9 -15 21 -38 27 -50 122 -226 362 -455 597 -569 136
-65 316 -128 369 -128 15 0 32 -5 39 -12 16 -16 468 -16 484 0 7 7 24 12 39
12 73 0 399 122 447 167 7 7 19 13 27 13 7 0 15 3 17 8 2 4 26 22 53 41 188
130 357 326 457 531 48 99 67 144 73 173 4 18 10 37 14 42 32 50 57 367 43
529 -11 114 -26 206 -41 241 -5 11 -19 52 -31 90 -37 117 -116 259 -209 375
-59 74 -182 199 -241 243 -30 23 -57 44 -60 48 -10 11 -128 79 -138 79 -6 0
-12 3 -14 8 -1 4 -21 15 -43 25 -22 10 -53 25 -68 33 -16 8 -34 14 -40 14 -7
0 -23 6 -37 13 -14 7 -54 21 -90 30 -36 10 -78 23 -95 28 -16 5 -75 12 -130
15 -55 2 -122 6 -150 7 -27 2 -104 0 -170 -3z m40 -824 c46 -35 65 -82 65
-159 0 -64 -1 -66 -41 -101 -23 -19 -46 -33 -53 -30 -7 3 -18 38 -25 79 -7 41
-16 77 -21 80 -15 9 -20 -26 -20 -138 0 -62 -3 -122 -6 -134 -9 -34 -32 -28
-48 12 -9 20 -22 35 -32 35 -14 0 -15 -7 -9 -47 4 -27 10 -54 14 -61 11 -20
-8 -163 -25 -189 -8 -13 -31 -31 -50 -41 -31 -14 -36 -14 -44 -2 -6 8 -10 102
-10 209 l0 194 -52 -7 c-29 -3 -79 -6 -110 -6 l-58 0 0 -365 0 -365 110 0 110
0 0 124 0 125 34 35 c18 20 41 36 49 36 41 0 77 -112 52 -160 -21 -40 -19
-113 4 -158 22 -43 89 -79 167 -90 44 -6 49 -10 52 -34 2 -17 -8 -48 -25 -78
-27 -48 -27 -50 -10 -79 9 -16 17 -36 17 -45 0 -15 -104 -70 -224 -120 l-39
-16 -86 85 -87 85 -158 0 c-163 0 -232 11 -300 50 l-31 17 -3 582 c-2 557 -1
585 17 626 16 36 25 45 53 50 37 6 452 21 657 23 128 2 136 1 166 -22z m1052
-79 l51 -84 7 -582 8 -581 -174 2 -173 3 -13 60 c-7 33 -12 122 -13 198 l0
139 -119 -4 c-66 -1 -122 -6 -125 -9 -6 -5 -18 -113 -32 -282 -9 -105 -12
-107 -195 -107 l-152 0 5 128 c7 165 27 218 97 258 75 41 85 34 92 -67 6 -88
12 -109 31 -109 7 0 9 43 4 140 l-6 141 31 45 c17 25 58 66 90 91 32 26 59 51
59 56 0 9 98 4 184 -9 l39 -7 -6 158 c-5 160 -12 182 -45 170 -8 -3 -49 -5
-93 -5 l-79 0 0 -45 c0 -51 -24 -109 -43 -102 -7 2 -24 37 -38 79 -51 149
-121 218 -222 218 -63 0 -71 41 -24 111 12 19 36 41 52 49 35 16 210 26 535
28 l216 2 51 -83z m-543 -493 c5 -17 1 -35 -9 -50 -13 -20 -19 -23 -36 -13
-16 8 -19 16 -14 37 14 55 48 70 59 26z"/>
<path d="M1380 3607 c-36 -34 -83 -85 -105 -112 -22 -27 -48 -59 -58 -70 -10
-11 -28 -36 -40 -55 -11 -19 -23 -37 -26 -40 -10 -9 -29 -44 -81 -150 -28 -58
-55 -112 -59 -120 -5 -9 -12 -31 -16 -50 -4 -19 -10 -39 -14 -45 -4 -5 -15
-46 -25 -90 -10 -44 -22 -96 -27 -116 -5 -20 -12 -84 -16 -143 l-6 -106 41 0
c22 0 44 5 47 11 4 5 11 58 16 117 11 132 41 271 75 349 8 17 14 35 14 40 0 6
7 25 16 44 81 176 183 328 304 449 14 14 38 42 53 62 23 29 26 41 18 56 -8 15
-31 32 -44 32 -1 0 -31 -28 -67 -63z"/>
<path d="M723 2458 c3 -24 11 -95 17 -158 6 -63 15 -126 20 -140 5 -14 11 -43
15 -65 6 -37 45 -163 65 -210 5 -11 18 -42 30 -70 58 -137 108 -225 203 -355
70 -95 217 -250 292 -305 22 -17 46 -35 53 -42 51 -49 336 -213 369 -213 7 0
13 -4 13 -9 0 -5 15 -13 33 -16 17 -4 37 -11 42 -15 6 -4 26 -11 45 -15 19 -4
41 -11 50 -16 20 -10 81 -25 203 -50 87 -18 128 -19 375 -16 277 4 289 5 452
47 25 7 59 18 77 26 17 8 38 14 46 14 9 0 19 4 22 10 3 5 13 10 22 10 32 0
336 158 363 189 3 3 30 23 60 44 103 70 98 63 65 97 -16 16 -32 30 -37 30 -4
0 -41 -24 -81 -54 -190 -140 -303 -194 -622 -296 -43 -14 -301 -40 -391 -40
-104 0 -397 29 -409 41 -5 5 -17 9 -26 9 -16 0 -82 20 -179 55 -152 55 -392
194 -490 285 -76 70 -153 145 -196 191 -42 45 -145 182 -157 209 -4 8 -21 38
-37 65 -54 91 -112 223 -125 287 -4 18 -11 38 -15 43 -14 19 -36 150 -61 363
l-13 112 -49 0 -49 0 5 -42z"/>
<path d="M4026 2468 c-3 -18 -8 -76 -11 -128 -4 -52 -10 -99 -15 -105 -4 -5
-10 -32 -14 -59 -5 -44 -42 -166 -66 -221 -47 -109 -147 -295 -169 -315 -4 -3
-32 -37 -64 -76 -72 -90 -253 -259 -291 -273 -6 -2 -13 -7 -16 -11 -14 -18
-186 -113 -265 -146 -16 -7 -46 -20 -67 -28 -20 -9 -42 -16 -50 -16 -24 0 -38
-23 -38 -62 0 -48 9 -48 115 -7 229 87 413 205 581 373 50 50 111 118 136 151
83 111 188 292 188 324 0 6 5 11 10 11 6 0 10 7 10 16 0 9 6 30 14 47 32 72
76 233 76 279 0 15 4 29 9 32 11 7 24 206 15 229 -4 12 -17 17 -45 17 -35 0
-38 -2 -43 -32z"/>
<path d="M995 2029 c-8 -11 2 -72 15 -98 4 -9 30 -61 56 -116 26 -55 51 -102
54 -105 3 -3 21 -30 39 -60 35 -57 57 -86 144 -184 29 -32 54 -61 57 -65 15
-21 196 -173 242 -204 115 -76 346 -182 467 -214 93 -24 250 -53 289 -53 19 0
50 -5 68 -12 44 -16 84 1 84 36 0 48 -9 56 -63 56 -28 0 -64 4 -81 9 -17 6
-65 14 -106 20 -118 15 -261 52 -284 72 -6 5 -18 9 -27 9 -32 0 -255 123 -345
191 -110 83 -281 259 -348 359 -55 81 -166 295 -166 319 -1 29 -26 51 -58 51
-17 0 -34 -5 -37 -11z"/>
</g>
</svg>
