<svg version="1.2" baseProfile="tiny-ps" xmlns="http://www.w3.org/2000/svg" viewBox="0 0 500 500" width="500" height="500">
	<title>QA__1_-removebg-preview</title>
	<style>
		tspan { white-space:pre }
		.shp0 { fill: #007fff } 
		.shp1 { fill: #fac815 } 
		.shp2 { fill: #3d5058 } 
		.shp3 { fill: #394d55 } 
		.shp4 { fill: #fdc705 } 
	</style>
	<g id="Background" style="fill-opacity: 0.98">
		<path id="Path 0" class="shp0" d="M249.15 77.1L248.98 80.5C263.33 81.78 271.77 83.25 277 84.6C282.23 85.94 291 89.21 296.5 91.86C302 94.51 310.1 99.38 314.5 102.69C318.9 106.01 325.13 111.59 328.34 115.11C331.55 118.62 336.72 125.33 339.83 130C342.94 134.68 347.14 142.55 349.17 147.5C351.2 152.45 353.79 161.11 354.93 166.75C356.33 173.7 357 180.79 356.99 188.75C356.98 196.22 356.3 203.78 355.12 209.5C354.11 214.45 352.99 219.51 352.64 220.75C352.1 222.66 352.49 223.12 355.25 223.83C358.03 224.54 358.62 224.36 359.35 222.58C359.81 221.44 361.04 216.45 362.08 211.5C363.4 205.22 363.98 198.35 363.99 188.75C363.99 180.58 363.39 171.85 362.5 167.25C361.67 162.99 359.88 156.13 358.51 152C357.14 147.88 354.17 140.9 351.92 136.5C349.67 132.1 345.74 125.58 343.17 122C340.61 118.42 335.81 112.63 332.5 109.12C329.2 105.62 322.9 100.05 318.5 96.75C314.1 93.45 305.55 88.35 299.5 85.41C293.3 82.4 284.13 78.94 278.5 77.49C273 76.07 264.18 74.63 258.91 74.3L249.32 73.7L249.15 77.1ZM208 81.89C202.78 84.01 196.03 87.2 193 88.98C189.97 90.76 184.8 94.14 181.5 96.5C178.2 98.86 171.86 104.55 167.42 109.14C162.98 113.74 157.52 120.2 155.29 123.5C153.07 126.8 149.43 133.1 147.2 137.5C144.98 141.9 142.9 146.74 142.58 148.25C142.09 150.58 142.42 151.16 144.75 152.03C146.26 152.59 147.76 152.7 148.09 152.28C148.41 151.85 149.7 149.03 150.95 146C152.2 142.97 154.83 137.8 156.79 134.5C158.76 131.2 162.26 126.03 164.57 123C166.88 119.97 171.86 114.56 175.64 110.96C179.41 107.37 184.75 102.81 187.5 100.82C190.25 98.84 195.43 95.64 199 93.71C202.57 91.78 208.43 89.18 212 87.94C215.57 86.69 218.86 85.41 219.3 85.09C219.74 84.76 219.51 83.05 218.8 81.27L217.5 78.05L208 81.89ZM249.5 85.67C249.04 86.03 248.74 87.61 248.83 89.17C248.96 91.24 249.6 92.12 251.25 92.44C252.49 92.68 256.88 93.12 261 93.42C265.13 93.71 271.65 94.84 275.5 95.91C279.35 96.99 285.65 99.28 289.5 101.01C293.35 102.74 299.43 106.09 303 108.46C306.57 110.82 312.99 116.19 317.25 120.38L325 128L329 123C325.51 118.04 321.57 114.09 318 111.03C314.43 107.97 308.13 103.36 304 100.79C299.88 98.23 293.13 94.77 289 93.12C284.88 91.47 278.8 89.41 275.5 88.55C272.2 87.69 265.9 86.54 261.5 85.99C257.1 85.45 252.79 85 251.92 85C251.05 85 249.96 85.3 249.5 85.67ZM233.5 98.39C229.65 99.13 223.13 100.93 219 102.38C214.88 103.83 208.19 106.92 204.13 109.26C200.08 111.59 193.78 116.01 190.13 119.08C186.49 122.15 180.96 128 177.86 132.08C174.75 136.16 170.84 141.97 169.16 145C167.48 148.03 164.77 154.55 163.13 159.5C161.49 164.45 159.6 172.32 158.93 177C158.22 181.98 157.97 189.23 158.33 194.5C158.66 199.45 159.89 207.1 161.05 211.5C162.21 215.9 164.62 222.65 166.39 226.5C168.16 230.35 171.59 236.43 174 240C176.42 243.57 180.67 248.91 183.45 251.85C186.23 254.79 191.43 259.35 195 261.98C198.57 264.61 204.65 268.33 208.5 270.24C212.35 272.15 218.43 274.66 222 275.81C225.57 276.96 231.2 278.37 234.5 278.96C237.8 279.54 244.89 280.01 250.25 280.01C255.61 280 263.49 279.29 267.75 278.41C272.01 277.54 278.88 275.51 283 273.9C287.13 272.3 293.43 269.23 297 267.08C300.57 264.94 306.2 260.81 309.5 257.91C312.8 255 317.62 250.12 320.22 247.06C322.82 244 326.86 238.13 329.2 234C331.55 229.88 334.52 223.57 335.8 220C337.09 216.43 338.78 210.46 339.57 206.75C340.36 203.04 341.01 194.71 341.01 188.25C341.03 179.13 340.49 174.37 338.64 167C337.32 161.78 334.92 154.57 333.31 151C331.7 147.43 328.41 141.57 326 138C323.6 134.43 318.9 128.64 315.56 125.14C312.23 121.64 306.8 116.85 303.5 114.5C300.2 112.15 294.24 108.61 290.25 106.62C286.26 104.63 279.06 101.84 274.25 100.41C267.48 98.41 262.68 97.74 253 97.44C245.03 97.19 237.96 97.53 233.5 98.39ZM173.83 118.9C169.8 123.25 164.25 130.55 161.5 135.12C158.75 139.7 155.08 147.28 153.33 151.97C151.59 156.66 149.49 163.88 148.66 168C147.84 172.13 147.01 178.43 146.83 182L146.5 188.5L153.5 188.5C154.62 175.32 155.9 167.9 157.05 163.5C158.21 159.1 160.61 152.35 162.39 148.5C164.16 144.65 167.61 138.57 170.04 135C172.48 131.43 177.04 125.8 180.19 122.5C183.34 119.2 185.95 116.05 185.99 115.5C186.03 114.95 185.26 113.72 184.28 112.78C183.3 111.83 182.2 111.04 181.83 111.03C181.47 111.01 177.87 114.56 173.83 118.9Z" />
		<path id="Path 1" class="shp1" d="M213.5 151.75C190 152.02 189.46 152.08 187.77 154.27C186.21 156.29 186.04 160.09 186 195L185.95 233.5C193.04 237.67 194.96 237.94 205.5 237.98L217.5 238.02L228.5 249.04C240.9 243.39 244.72 241.57 245 241.34C245.28 241.12 244.75 239.71 243.83 238.21C242.24 235.65 242.25 235.36 244.05 233C245.1 231.63 245.97 229.26 245.98 227.75C246 225.57 245.64 225.12 244.25 225.58C243.29 225.9 240.26 225.11 237.53 223.83C233.31 221.85 232.39 220.9 231.41 217.5C230.49 214.32 230.54 212.78 231.64 210C232.68 207.37 232.77 205.57 232.01 202.75C231.34 200.26 230.41 198.99 229.25 198.97C228.29 198.95 226.6 199.89 225.5 201.07C223.78 202.9 223.53 204.37 223.75 211.6L224 220L209 220L209 172C214.81 171.98 218.2 171.65 220.27 171.24L224.04 170.5C224.01 191.81 224.22 198 224.5 198C224.78 198 226.35 197.32 228 196.5C230.42 195.29 231.12 194.18 231.61 190.75C231.94 188.41 231.71 184.14 231.11 181.25C230.5 178.36 230 175.78 230 175.5C230 175.22 230.68 175 231.5 175C232.32 175 233.22 176.13 233.5 177.5C233.78 178.88 234.45 180 235 180C235.55 180 236.3 179.21 236.67 178.25C237.04 177.29 237.26 172.79 237.17 168.25C237.08 163.71 237.34 159.99 237.75 159.98C238.16 159.98 238.87 162.34 239.33 165.23C239.79 168.13 240.35 170.84 240.58 171.25C240.81 171.66 242.36 170.76 244.02 169.25C246.55 166.95 247.03 165.77 246.99 162C246.96 158.81 246.22 156.55 244.47 154.25C242.79 152.04 241.28 151.07 239.75 151.23C238.51 151.36 226.7 151.59 213.5 151.75ZM271.65 152.93C258.86 153.5 258.8 153.51 256.41 156.5C255.09 158.15 254.01 160.51 254 161.75C254 163.48 254.57 164 256.5 164C257.88 164 260.57 164.68 262.5 165.5C264.74 166.46 266.87 168.53 268.43 171.25C269.76 173.59 271.22 177.24 271.68 179.37C272.13 181.51 272.89 183.53 273.36 183.87C273.84 184.22 274.62 183.82 275.1 183C275.58 182.18 275.98 179.81 275.98 177.75L276 174C286.46 173.56 289.61 173.45 289.75 173.47C289.89 173.49 290.34 178.35 290.75 184.29L291.5 195.07C279.37 193.77 276.66 193.85 276.2 194.55C275.82 195.12 273.96 196.7 272.07 198.05C270.18 199.4 267.54 202.3 266.19 204.5C264.24 207.69 263.97 208.85 264.87 210.25C265.49 211.21 266 214.93 266 218.5C266 222.17 265.56 225 265 225C264.45 225 263.85 224.44 263.67 223.75C263.5 223.06 263.24 220.25 263.1 217.5C262.96 214.75 262.54 212.14 262.17 211.7C261.8 211.26 259.74 211.94 257.6 213.2C255.45 214.47 253.32 216.51 252.85 217.75C252.38 218.99 251.78 224.05 251.5 229L251 238C270.81 238 272.01 237.8 272.05 236.25C272.08 235.29 272.51 229.55 273.01 223.5C273.51 217.45 274.05 212.44 274.21 212.37C274.37 212.3 278.21 212.08 282.75 211.87L290.99 211.5C291.01 226.22 291.35 232.2 291.76 234.27L292.5 238.04L314 238L312.79 162.5L306.5 151.97C289.45 152.27 278.72 152.62 271.65 152.93Z" />
		<path id="Path 2" class="shp2" d="M237.06 168.25C237.21 172.79 237.04 177.29 236.67 178.25C236.3 179.21 235.55 180 235 180C234.45 180 233.78 178.88 233.5 177.5C233.22 176.13 232.32 175 231.5 175C230.34 175 230.15 175.74 230.64 178.25C230.99 180.04 232 182.1 232.89 182.82C233.77 183.55 234.05 183.93 233.5 183.65C232.93 183.37 232.2 185.59 231.79 188.83C231.37 192.17 230.45 194.91 229.54 195.5C228.19 196.38 228.25 196.8 230 199C231.09 200.38 232.21 202.96 232.49 204.75C232.88 207.25 233.41 207.89 234.75 207.52C235.71 207.26 240.1 208.54 244.5 210.38C248.9 212.21 252.39 214.22 252.25 214.85C252.11 215.48 254.14 214.87 256.75 213.5C260.07 211.75 261.88 211.3 262.75 212C263.44 212.55 264.45 212.78 265 212.5C265.65 212.18 265.6 211.38 264.87 210.25C263.97 208.85 264.27 207.65 266.37 204.25C267.82 201.91 270.57 198.99 272.48 197.75C274.39 196.51 276.13 195.05 276.34 194.5C276.55 193.95 275.59 193.5 274.21 193.5C272.82 193.5 271.53 192.94 271.34 192.25C271.15 191.56 271.9 190.1 273 189C274.1 187.9 275 186.32 275 185.5C275 184.68 274.32 183.78 273.5 183.5C272.67 183.22 271.77 181.33 271.49 179.25C271.21 177.19 269.63 173.36 267.99 170.75C265.58 166.92 264.18 165.77 260.75 164.82C257.11 163.81 255.74 163.92 251.16 165.57C248.22 166.63 244.84 168.5 243.66 169.72C242.47 170.95 241.16 171.73 240.75 171.47C240.34 171.21 239.78 168.53 239.51 165.5C239.23 162.42 238.52 160 237.9 160C237.15 160 236.88 162.69 237.06 168.25Z" />
		<path id="Path 3" class="shp0" d="M214.25 171.68L209 172L209 220L224 220C224 205.67 223.82 205 222 205C220.89 205 220 204.33 220 203.5C220 202.68 220.9 201.44 222 200.75C223.86 199.59 224.01 198.43 224 185.25C224 171.08 223.99 171 221.75 171.18C220.51 171.29 217.14 171.51 214.25 171.68ZM282.25 173.69L276 174C276 179.43 276.45 181 277 181C277.55 181 278.23 180.55 278.5 180C278.77 179.45 279.45 179 280 179C280.55 179 281 179.68 281 180.5C281 181.32 279.65 183.13 278 184.5C276.35 185.88 274.98 188.01 274.96 189.25C274.93 190.49 275.49 192 276.21 192.62C276.92 193.23 280.54 194.02 284.25 194.37L291 195C290.99 186.09 290.75 181.14 290.46 178.25C290.18 175.36 289.62 173.09 289.22 173.19C288.83 173.3 285.69 173.52 282.25 173.69Z" />
		<path id="Path 4" class="shp3" d="M277 180.67C275.54 181.59 274.61 183.02 274.75 184.12C274.89 185.15 275.34 186.01 275.75 186.03C276.16 186.04 277.5 185.03 278.73 183.78C279.95 182.52 280.97 180.94 280.98 180.25C280.99 179.56 280.66 179.02 280.25 179.05C279.84 179.08 278.38 179.81 277 180.67Z" />
		<path id="Path 5" class="shp0" d="M135.41 196.75C135.8 201.56 136.8 208.88 137.64 213C138.48 217.13 140.93 225 143.09 230.5C145.25 236 149.15 243.98 151.76 248.24C154.37 252.5 159.22 259.25 162.55 263.24C165.88 267.23 172.25 273.43 176.69 277C181.14 280.57 188.09 285.41 192.14 287.74C196.19 290.07 202.65 293.27 206.5 294.85C210.35 296.43 217.32 298.74 222 299.97C228.29 301.64 234.39 302.36 245.5 302.73C254.96 303.04 263.27 302.78 268 302.01C272.13 301.34 279.1 299.66 283.5 298.28C287.9 296.9 294.65 294.28 298.5 292.46C302.35 290.64 308.88 286.9 313 284.14C317.13 281.39 321.63 278.23 323 277.11L325.5 275.08L320.5 269.92C314.3 274.77 309.35 278.14 305.5 280.54C301.65 282.94 295.35 286.21 291.5 287.81C287.65 289.41 280.45 291.79 275.5 293.1C267.66 295.17 264.31 295.47 249.5 295.43C234.33 295.39 231.42 295.09 222.5 292.71C217 291.25 208 287.82 202.5 285.1C197 282.39 189.57 277.94 186 275.23C182.43 272.51 176.44 267.19 172.71 263.4C168.97 259.6 163.59 253.13 160.75 249C157.91 244.88 154.14 238.35 152.37 234.5C150.6 230.65 147.98 223.45 146.55 218.5C145 213.12 143.64 205.17 143.18 198.75L142.4 188L134.7 188L135.41 196.75Z" />
		<path id="Path 6" class="shp1" d="M271.95 190.25C271.33 191.49 271.21 192.85 271.67 193.27C272.13 193.7 273.18 193.8 274 193.49C274.85 193.17 275.43 191.87 275.33 190.47C275.23 189.11 274.68 188 274.11 188C273.53 188 272.56 189.01 271.95 190.25Z" />
		<path id="Path 7" class="shp0" d="M345.58 195.75C345.21 200.01 344.01 207.32 342.9 212C341.8 216.68 339.2 224.1 337.14 228.5C335.08 232.9 331.42 239.43 329.02 243C326.61 246.57 321.46 252.68 317.57 256.57C313.68 260.46 307.8 265.46 304.5 267.68C301.2 269.91 296.02 272.98 293 274.51C289.98 276.04 285.25 278.07 282.5 279.01C277.74 280.66 277.51 280.9 277.73 284.12C277.85 285.98 278.08 287.62 278.23 287.77C278.38 287.92 281.65 286.89 285.5 285.48C289.35 284.06 295.43 281.3 299 279.35C302.57 277.39 308.43 273.64 312 271.01C315.57 268.38 321.21 263.36 324.52 259.86C327.83 256.36 332.38 250.8 334.63 247.5C336.88 244.2 340.2 238.57 342.01 235C343.81 231.43 346.36 225.35 347.67 221.5C348.99 217.65 350.73 210.68 351.54 206C352.36 201.32 353.02 195.36 353.01 192.75C353 188.02 352.98 188 349.63 188L346.25 188L345.58 195.75Z" />
		<path id="Path 8" class="shp3" d="M223.62 199.53C221.48 200.93 219.79 202.73 219.87 203.54C219.94 204.34 220.65 204.89 221.45 204.75C222.24 204.61 223.93 203.04 225.2 201.26C226.46 199.48 227.85 198.35 228.28 198.76C228.71 199.17 229.04 198.94 229.03 198.25C229.01 197.56 228.66 197 228.25 197C227.84 196.99 225.75 198.13 223.62 199.53ZM233.39 207.79C232.78 208.2 231.8 209.66 231.22 211.02C230.57 212.54 230.51 214.08 231.07 215C231.56 215.82 231.98 216.16 231.98 215.75C231.99 215.34 233.14 215.79 234.54 216.75C236.2 217.89 236.9 219.11 236.54 220.25C236.24 221.21 236.68 222.68 237.5 223.5C238.32 224.32 239.34 225.02 239.75 225.05C240.16 225.07 241.18 224.1 242 222.89C243.31 220.97 243.88 220.82 246.5 221.75C248.15 222.34 249.99 222.52 250.59 222.16C251.18 221.8 252.2 220.04 252.84 218.25C253.74 215.71 253.73 214.8 252.75 214.09C252.06 213.59 248.01 211.79 243.75 210.09C239.49 208.39 235.66 207.01 235.25 207.02C234.84 207.02 234 207.37 233.39 207.79Z" />
		<path id="Path 9" class="shp2" d="M231.58 215.99C231.26 216.55 231.56 218.23 232.25 219.73C232.94 221.24 234.18 222.6 235 222.76C236.01 222.95 236.5 222.23 236.5 220.54C236.5 219.11 235.57 217.38 234.33 216.51C232.97 215.55 231.94 215.36 231.58 215.99ZM263.33 219.75C263.63 222.36 263.9 224.61 263.94 224.75C263.97 224.89 264.45 225 265 225C265.55 225 266 222.75 266 220C266 216.07 265.66 215 264.39 215C263.06 215 262.87 215.82 263.33 219.75Z" />
		<path id="Path 10" class="shp0" d="M154.5 217.71C153.4 217.98 152.17 218.49 151.77 218.85C151.37 219.21 151.97 221.97 153.12 225C154.26 228.03 156.34 232.75 157.73 235.5C159.12 238.25 162.43 243.65 165.07 247.5C167.72 251.35 172.95 257.53 176.69 261.24C180.44 264.95 185.97 269.84 189 272.11C192.03 274.37 198.32 278.14 203 280.47C207.68 282.81 214.43 285.67 218 286.83C221.57 288 228.55 289.64 233.5 290.48C238.45 291.33 244.19 292.02 246.25 292.01C249.87 292 250 291.88 250 288.5C250 286.37 249.51 285 248.75 285C248.06 285 243.68 284.53 239 283.96C234.32 283.39 227.13 281.99 223 280.86C218.88 279.73 212.13 277.14 208 275.11C203.88 273.07 198.25 269.85 195.5 267.96C192.75 266.07 187.63 261.81 184.11 258.51C180.6 255.2 175.66 249.8 173.14 246.5C170.62 243.2 166.69 236.9 164.39 232.5C162.1 228.1 159.72 222.81 159.11 220.75C158.5 218.69 157.66 217.05 157.25 217.12C156.84 217.18 155.6 217.45 154.5 217.71Z" />
		<path id="Path 11" class="shp2" d="M242.14 222.91C241.51 224.06 241.11 225.26 241.25 225.58C241.39 225.9 242.63 225.91 244 225.59C245.38 225.28 247.18 224.59 248 224.06C248.82 223.54 249.28 222.9 249 222.64C248.72 222.38 247.33 221.86 245.89 221.49C243.86 220.97 243.03 221.29 242.14 222.91Z" />
		<path id="Path 12" class="shp0" d="M134.06 335.06C131.01 339.99 131 340 133.03 341.75C134.99 343.44 135.18 343.37 139.04 339.5C141.24 337.3 143.05 335.25 143.07 334.94C143.09 334.63 141.76 333.42 140.12 332.24L137.12 330.11L134.06 335.06ZM42 355.5L42 379L71 379L71 368C65.96 368.01 62.36 367.67 59.73 367.26C55.18 366.53 54.97 366.36 54.98 363.25C55 360.02 55.03 360 60 360L65 360L64.5 349.5C55.42 349.02 55 348.78 55 346.5C55 344.06 55.17 344 62.5 344L70 344C70 334.5 69.59 332.86 68.5 332.5C67.67 332.23 61.38 332 54.5 332L42 332L42 355.5Z" />
		<path id="Path 13" fill-rule="evenodd" class="shp4" d="M178.95 331.97C190.64 331.94 192.75 332.18 194.31 333.72C195.97 335.36 196.07 337.12 195.56 355.75C195.23 367.67 194.59 376.21 194 376.5C193.36 376.82 193.34 377.63 193.94 378.75C194.72 380.21 194.1 380.89 185.5 385.1L182.5 381.99C179.76 379.15 178.89 378.86 172.5 378.67C168.65 378.55 164.94 378.13 164.25 377.73C163.32 377.19 162.95 371.51 162.8 355.7C162.64 338.5 162.87 334.17 164 333.2C164.94 332.4 169.9 331.99 178.95 331.97ZM174.5 344.16C175.65 354.5 175.99 360.09 175.99 363.25L176 369L183 369C183 346.19 182.69 343.04 181.75 343.15C181.06 343.23 179.15 343.49 177.5 343.73L174.5 344.16ZM223.75 332.2C227.41 332.03 228.24 332.38 229.75 334.75C231.24 337.1 231.54 340.49 232.03 378.5L220 379L220 365L216.4 364.69C214.42 364.52 212.18 364.86 211.44 365.44C210.63 366.07 209.96 368.93 209.5 378.5L198 379L198.48 368.75C198.75 363.11 199.21 353.32 199.5 347C199.83 339.83 200.49 335.05 201.26 334.31C201.95 333.65 206.27 332.96 211 332.76C215.68 332.57 221.41 332.32 223.75 332.2ZM212 355L219 355L219 345L212 345L212 355Z" />
		<path id="Path 14" fill-rule="evenodd" class="shp0" d="M267.08 331.93L280.29 332.59C291.88 333.17 293.77 333.52 295.7 335.38C297.51 337.13 297.97 338.91 298.32 345.5C298.56 349.9 298.35 353.95 297.86 354.5C297.33 355.1 297.6 356.1 298.53 357C299.7 358.12 300.07 360.5 300.02 366.5C299.97 373.38 299.64 374.82 297.73 376.78C295.61 378.94 294.77 379.05 267 379L267.08 331.93ZM279.19 346.96C279.43 348.87 280.23 349.55 282.73 349.96C285.88 350.49 285.95 350.42 285.98 346.75C285.99 344.07 285.57 343 284.5 343C283.68 343 282.38 342.73 281.61 342.4C280.85 342.06 279.92 342.4 279.55 343.15C279.18 343.89 279.02 345.61 279.19 346.96ZM282.75 368.45C284.26 368.14 286.07 367.13 286.77 366.2C287.46 365.26 288.03 363.71 288.02 362.75C288.01 361.79 287.44 360.81 286.75 360.58C286.06 360.35 284.27 359.9 282.77 359.56C280.09 358.97 280.05 359.04 280.02 363.98C280 368.93 280.04 368.99 282.75 368.45ZM461.5 332.55C468.89 332.88 473.96 333.55 474.7 334.29C475.36 334.96 476.23 339.55 476.64 344.5C477.24 351.78 477.08 353.98 475.85 356C474.94 357.48 472.62 359.01 470.16 359.75C467.08 360.67 466 361.52 466 363C466 364.78 465.33 365 454 365L453.65 361.75C453.45 359.96 453.9 357.04 454.65 355.25C455.71 352.7 456.87 351.78 460 351C463.68 350.08 463.95 349.78 463.42 347.25C463.1 345.74 462.76 344.45 462.67 344.39C462.58 344.34 461.04 344 459.25 343.64C456.35 343.07 455.95 343.27 455.5 345.5C455.06 347.69 454.48 348 450.75 348.02C448.41 348.03 445.93 347.46 445.23 346.77C444.54 346.07 443.88 342.95 443.78 339.83C443.61 334.4 443.72 334.12 446.55 333.09C448.38 332.42 454.06 332.22 461.5 332.55Z" />
		<path id="Path 15" class="shp1" d="M162.42 355.5C162.42 367.05 162.57 371.55 162.75 365.5C162.92 359.45 162.92 350 162.75 344.5C162.57 339 162.42 343.95 162.42 355.5Z" />
		<path id="Path 16" fill-rule="evenodd" class="shp0" d="M127 344L139.69 344L139.23 360.75C138.99 369.96 138.61 377.84 138.39 378.25C138.18 378.66 135.53 379 127 379L127 344ZM302.27 343.77L306.88 344.46C309.42 344.84 312.08 345.68 312.79 346.33C313.52 347 314.47 351.75 315 357.5C315.51 363 315.94 367.84 315.96 368.25C315.98 368.66 317.35 369 322 369L322.75 357.9C323.16 351.8 323.95 346.44 324.5 346C325.05 345.56 327.75 345.04 335.5 344.5L335.5 350.25C335.5 353.41 335.39 361.18 335 379L320.5 379C312.52 379 305.1 378.55 304 378C302.11 377.06 302.01 376.07 302.13 360.39L302.27 343.77ZM351.18 344C357.25 344 360.19 344.39 360.61 345.25C361.09 346.25 361.43 346.25 362.31 345.25C362.91 344.56 365.11 344 371 344L370.97 367.25C370.95 387.89 370.76 390.7 369.22 392.28C367.74 393.82 365.68 394.06 354.25 394.03C341.64 394 340.93 393.89 339.49 391.75C338.66 390.51 337.99 387.81 337.99 385.75C338 383 338.54 381.73 340 381C341.1 380.45 343.57 380 345.5 380C348.17 380 349.12 380.48 349.5 382C349.9 383.58 350.83 384 354 384C357.6 384 358 383.75 358 381.5C358 379.03 357.89 379 349.75 379.03C343.1 379.06 341.18 378.72 339.83 377.28C338.57 375.93 337.97 372.42 336.5 350.1L339.43 347.05C342.27 344.1 342.66 344 351.18 344ZM350.25 361.75C350.48 367.06 350.69 367.52 353 367.78C354.38 367.94 356.08 367.49 356.79 366.78C357.51 366.08 358.17 363.41 358.28 360.86C358.43 357.24 358.09 356.08 356.73 355.61C355.78 355.27 354.89 355.06 354.75 355.14C354.61 355.21 353.49 355.44 352.25 355.64C350.18 355.97 350.02 356.47 350.25 361.75ZM389.42 344.65C402.22 345.19 403.65 345.44 405.12 347.37C406.49 349.17 406.67 351.53 406.25 362.5C405.98 369.65 405.36 376.29 404.88 377.25C404.11 378.79 402.36 379 390.5 379C383.07 379 376.1 378.55 375 378C373.14 377.07 373 376 373 362.5C373 353.22 373.42 347.29 374.17 346.03C375.27 344.17 376.13 344.09 389.42 344.65ZM386 362C386 368.87 386.05 369.01 388.75 369.41C390.26 369.63 391.84 369.63 392.25 369.41C392.66 369.18 393 365.85 393 362L393 355L386 355L386 362ZM408.22 343.81L413.36 344.54C416.19 344.94 419.05 345.99 419.72 346.88C420.39 347.77 420.95 350.3 420.96 352.5C420.98 354.7 421.33 359.32 421.74 362.76C422.47 368.75 422.62 369.02 425.25 369.01C427.29 369 428.13 368.42 428.49 366.75C428.75 365.51 428.97 360.9 428.97 356.5C428.97 351.59 429.45 347.85 430.23 346.82C431.05 345.75 433.29 345.03 441.5 344.5L442 379L427 379C418.75 379 411.1 378.55 410 378C408.11 377.06 408.01 376.06 408.11 360.41L408.22 343.81ZM107.85 345.02C115.36 345.02 122.06 345.36 122.74 345.77C123.6 346.27 124.22 351.55 125.5 378.89L110 378.92C96.65 378.95 94.25 378.71 92.72 377.23C91.36 375.91 90.94 373.95 90.96 369C90.98 364.91 91.54 361.67 92.49 360.25C93.69 358.46 94.98 357.99 98.75 357.94C101.36 357.91 105.26 357.57 107.42 357.19C109.57 356.81 111.48 355.94 111.67 355.25C111.9 354.39 110.61 354 107.5 354C105.03 354 102.89 354.42 102.75 354.93C102.61 355.46 100.16 355.57 97 355.18C92.27 354.6 91.46 354.18 91.25 352.25C91.11 351.01 91.72 348.88 92.6 347.5C94.17 345.03 94.37 345 107.85 345.02ZM107.75 368.75C110.31 368.58 111.5 368.02 111.5 367C111.5 365.99 110.29 365.4 107.81 365.19C104.67 364.93 104.12 365.18 104.06 366.94C104.01 368.71 104.53 368.96 107.75 368.75Z" />
		<path id="Path 17" class="shp1" d="M126.4 364.5C126.4 372.75 126.56 375.9 126.74 371.5C126.93 367.1 126.93 360.35 126.74 356.5C126.55 352.65 126.4 356.25 126.4 364.5ZM175.35 361C175.35 365.68 175.52 367.48 175.73 365C175.94 362.52 175.94 358.7 175.73 356.5C175.52 354.3 175.35 356.32 175.35 361ZM195.37 365.5C195.37 371 195.54 373.02 195.74 370C195.94 366.98 195.94 362.48 195.73 360C195.53 357.52 195.36 360 195.37 365.5ZM335.38 367.5C335.38 374.1 335.55 376.57 335.74 373C335.94 369.43 335.93 364.02 335.74 361C335.54 357.98 335.38 360.9 335.38 367.5Z" />
		<path id="Path 18" class="shp4" d="M239.5 367.7C238.4 367.96 236.93 368.92 236.23 369.83C235.54 370.75 234.97 373.19 234.98 375.25C235 377.91 235.44 379 236.5 379C237.39 379 237.8 379.61 237.5 380.5C237.22 381.34 237.98 382.67 239.25 383.54C241.38 385 241.65 384.91 244.26 381.79C246.43 379.2 247.02 377.49 247.01 373.75C247 370.01 246.58 368.79 245 368C243.9 367.45 242.66 367.05 242.25 367.12C241.84 367.18 240.6 367.44 239.5 367.7Z" />
		<path id="Path 19" class="shp0" d="M453.61 369.25C453.29 370.49 453.01 372.63 453 374C452.98 375.38 453.54 377.07 454.23 377.77C454.93 378.46 457.3 379.05 459.5 379.06C461.7 379.08 464 378.51 464.61 377.79C465.22 377.08 465.99 374.93 466.31 373C466.67 370.87 466.43 369 465.7 368.23C465.03 367.52 462.23 366.97 459.35 366.98C454.85 367 454.12 367.29 453.61 369.25Z" />
	</g>
</svg>