<svg version="1.1" id="Layer_1" xmlns="http://www.w3.org/2000/svg" xmlns:xlink="http://www.w3.org/1999/xlink" x="0px" y="0px"
	 width="100%" viewBox="0 0 500 500" enable-background="new 0 0 500 500" xml:space="preserve">
<path fill="#000000" opacity="1.000000" stroke="none" 
	d="
M267.000000,501.000000 
	C178.000015,501.000000 89.500046,501.000000 1.000047,501.000000 
	C1.000032,334.333405 1.000032,167.666794 1.000016,1.000137 
	C167.666565,1.000091 334.333130,1.000091 500.999756,1.000046 
	C500.999847,167.666519 500.999847,334.333038 500.999939,500.999786 
	C423.166656,501.000000 345.333344,501.000000 267.000000,501.000000 
M349.003296,381.313385 
	C354.427094,376.847351 360.263763,372.788544 365.171356,367.813293 
	C371.453186,361.444885 377.246582,354.541412 382.760803,347.485901 
	C387.240875,341.753662 391.185669,335.572296 395.010132,329.369568 
	C397.440613,325.427734 399.530334,321.205231 401.218750,316.891724 
	C404.359985,308.866608 407.455841,300.788513 409.878387,292.529449 
	C411.565063,286.779144 411.193085,280.335052 413.354462,274.835052 
	C416.637695,266.480255 413.927277,258.349213 415.009369,250.228546 
	C410.271606,250.228546 406.314911,250.228546 401.857758,250.228546 
	C401.222717,256.338806 400.612091,262.270355 399.987701,268.200439 
	C399.644379,271.461060 399.618958,274.802643 398.847107,277.960297 
	C397.456635,283.649170 395.741394,289.269196 393.923462,294.840179 
	C391.970367,300.825226 390.342804,307.029144 387.489014,312.580200 
	C383.604187,320.137024 378.962006,327.351685 374.134094,334.361420 
	C370.317169,339.903198 366.216003,345.422607 361.377136,350.048218 
	C353.265289,357.802643 344.757721,365.219299 335.849152,372.036407 
	C330.227783,376.338135 323.750214,379.656189 317.334900,382.747742 
	C310.709778,385.940399 303.654694,388.229553 296.870453,391.108887 
	C294.124634,392.274261 292.550568,398.926636 294.452484,401.666656 
	C296.451569,404.546722 298.873901,407.299042 302.538757,403.350586 
	C302.887268,402.975128 303.810822,403.193237 304.417450,402.988068 
	C309.028046,401.428925 313.854584,400.293091 318.177948,398.147217 
	C325.807617,394.360229 333.096710,389.892365 340.594727,385.832153 
	C343.319611,384.356659 346.234344,383.231720 349.722839,382.528503 
	C349.354156,383.268250 349.183563,384.317841 348.586121,384.699738 
	C342.597015,388.528351 336.867493,392.997101 330.424805,395.829895 
	C319.391937,400.680878 308.007599,404.811005 296.562592,408.617523 
	C289.390686,411.002808 281.822296,413.764557 274.459229,413.688995 
	C257.681671,413.516754 240.760117,416.300140 224.083572,412.057190 
	C217.689972,410.430511 211.069901,409.670990 204.711731,407.935059 
	C199.063766,406.393036 193.600723,404.136688 188.122513,402.023376 
	C184.580368,400.656952 181.029800,399.213409 177.710938,397.389648 
	C172.378235,394.459198 167.175919,391.277832 162.026794,388.030823 
	C156.950104,384.829529 151.439209,382.020782 147.123566,377.969482 
	C137.739319,369.160126 128.788681,359.858582 120.078529,350.374512 
	C115.893867,345.818024 112.038071,340.721313 109.133530,335.281799 
	C104.494148,326.593384 100.394646,317.564056 96.777206,308.398529 
	C93.669342,300.524109 91.144173,292.357544 89.141685,284.130219 
	C87.734703,278.349548 87.593269,272.254669 86.969048,266.291473 
	C86.409073,260.942047 85.961494,255.580887 85.477791,250.369934 
	C80.581863,250.369934 75.850281,250.369934 70.734772,250.369934 
	C71.197510,253.533783 71.884056,256.267303 71.946152,259.014954 
	C72.143326,267.739349 71.950661,276.382263 74.848145,284.917389 
	C77.430939,292.525543 78.393623,300.674500 80.832306,308.342743 
	C85.439415,322.829468 92.229126,336.348450 100.797279,348.916107 
	C104.627419,354.534058 108.428429,360.251526 112.924767,365.318542 
	C121.373650,374.839691 130.014511,384.234863 140.750824,391.367493 
	C147.967545,396.161865 154.807022,401.599823 162.330460,405.834534 
	C169.171280,409.684998 176.632080,412.489319 183.957260,415.409454 
	C192.451294,418.795502 200.955414,422.291382 209.721313,424.815094 
	C216.102005,426.652130 222.949097,428.018188 229.527679,427.796539 
	C247.047684,427.206177 264.701385,430.396973 282.103241,426.048706 
	C287.087738,424.803223 292.158325,423.802521 297.245544,423.089508 
	C307.034241,421.717560 316.056335,418.131744 324.924896,414.039734 
	C331.444672,411.031494 338.184509,408.373352 344.344299,404.741730 
	C353.203857,399.518433 361.679749,393.631317 370.166412,387.804657 
	C371.244110,387.064789 372.307465,384.430206 371.816406,383.622375 
	C370.190521,380.947754 368.261749,377.872406 365.644897,376.582397 
	C363.775269,375.660706 360.559753,377.176941 358.043304,377.933197 
	C354.841827,378.895416 353.245575,383.459625 349.003296,381.313385 
M107.998306,248.504227 
	C107.998306,249.003891 107.981918,249.504166 108.000755,250.003113 
	C108.331360,258.762756 107.900734,267.640900 109.234764,276.245392 
	C110.366600,283.545654 113.300011,290.616882 115.871185,297.629974 
	C118.589729,305.045044 121.040489,312.740631 125.060028,319.442963 
	C128.767624,325.625244 131.354279,332.603668 137.438507,337.531433 
	C141.482773,340.807007 143.272583,346.824341 147.258392,350.222229 
	C156.595673,358.182190 166.330582,365.777802 176.524750,372.593231 
	C182.881439,376.843079 190.282715,379.602478 197.382874,382.638702 
	C201.091461,384.224579 205.157745,384.979797 209.070786,386.080597 
	C216.121841,388.064117 223.203552,391.757599 230.229141,391.658783 
	C248.505875,391.401642 266.842407,394.108246 285.157501,389.368011 
	C293.995270,387.080688 302.936951,384.950958 311.320618,381.617920 
	C325.091827,376.143036 337.176544,367.463348 348.442871,357.901794 
	C356.498383,351.065186 364.041473,343.634186 369.487122,334.325104 
	C372.689758,328.850342 376.822052,323.910004 379.905151,318.377625 
	C382.598328,313.544861 383.954987,307.959808 386.704742,303.167664 
	C392.183594,293.619476 394.982544,282.842529 395.499725,272.535858 
	C396.280914,256.968170 398.296265,241.062927 394.059357,225.493744 
	C392.457672,219.607956 392.124512,213.315216 390.046997,207.634460 
	C386.504089,197.946625 383.037598,188.276031 377.240173,179.400879 
	C371.493439,170.603378 365.415741,162.212997 358.224701,154.636627 
	C354.501862,150.714279 350.498932,146.966080 346.190033,143.711853 
	C338.515533,137.915863 330.735504,132.194611 322.567627,127.140121 
	C317.243011,123.845123 311.245636,121.554916 305.383850,119.233253 
	C299.474731,116.892822 293.458466,114.682457 287.308594,113.130363 
	C281.317932,111.618454 275.109039,110.240974 268.977844,110.158920 
	C253.298050,109.949104 237.456329,108.517052 222.035583,112.552628 
	C212.749771,114.982689 203.716858,118.364243 194.518295,121.146263 
	C180.913239,125.260994 169.944351,134.105576 158.865662,142.223038 
	C150.984299,147.997787 145.092819,156.541000 138.526642,164.035583 
	C135.289474,167.730469 132.190170,171.638855 129.646271,175.825958 
	C126.112122,181.642914 122.918633,187.700699 120.040779,193.870621 
	C118.125298,197.977295 116.987244,202.450287 115.550789,206.775772 
	C113.344841,213.418396 110.468658,219.942749 109.201538,226.763382 
	C107.946465,233.519165 108.332237,240.579788 107.998306,248.504227 
M283.857086,91.905869 
	C293.053467,91.987617 301.405182,95.307388 309.901428,98.347099 
	C319.437714,101.758942 328.592377,105.821930 336.986572,111.492340 
	C344.338928,116.458984 351.946228,120.914955 358.998291,126.509979 
	C365.943634,132.020355 372.464447,138.046875 378.157013,144.441025 
	C384.339630,151.385605 389.819702,159.258850 394.676300,167.527603 
	C400.499420,177.441895 406.171509,187.379700 409.769043,198.205246 
	C413.232422,208.626968 415.745636,219.425629 417.826904,230.222427 
	C419.065033,236.645248 419.214050,243.412323 418.876404,249.974380 
	C418.311584,260.951904 417.307953,271.936584 415.802521,282.823334 
	C415.060699,288.187988 412.649872,293.305054 411.252045,298.602203 
	C410.436615,301.692352 410.392883,305.237549 414.063354,306.366730 
	C417.412750,307.397156 421.781281,310.440857 424.276245,305.186371 
	C426.271576,300.984131 428.140717,296.500031 428.838440,291.952698 
	C430.056396,284.014862 430.648438,275.942902 430.919281,267.907501 
	C431.255890,257.920135 430.880005,247.910995 431.030060,237.914551 
	C431.221161,225.184204 430.205414,212.592514 425.930389,200.549301 
	C422.858307,191.894958 419.362732,183.348892 415.414948,175.059891 
	C411.822723,167.517410 407.414093,160.359238 403.265808,153.088425 
	C401.688995,150.324707 400.071930,147.523727 398.058563,145.081543 
	C393.554260,139.617920 389.012177,134.151276 384.066376,129.095810 
	C379.435669,124.362450 374.348877,120.059059 369.303802,115.752739 
	C365.684906,112.663757 361.962036,109.643364 358.002716,107.019081 
	C352.188049,103.165039 346.295868,99.355141 340.115448,96.144890 
	C332.970428,92.433617 325.588074,89.111679 318.098328,86.153641 
	C312.425385,83.913147 306.441956,82.440094 300.560699,80.750931 
	C294.762939,79.085739 289.003204,76.974068 283.075317,76.156815 
	C275.903351,75.168022 268.553711,75.544708 261.317902,74.909576 
	C257.714233,74.593254 254.192947,73.338150 250.296066,72.428757 
	C250.296066,77.901253 250.296066,82.300987 250.296066,86.122131 
	C254.837082,87.142914 258.923248,88.430710 263.102325,88.912094 
	C268.992462,89.590569 274.954803,89.626335 280.876892,90.063553 
	C281.651672,90.120758 282.371094,90.927681 283.857086,91.905869 
M164.768478,368.957275 
	C162.536224,367.394714 159.976074,366.146515 158.126266,364.217285 
	C148.060715,353.719513 137.044815,343.871521 128.562744,332.196655 
	C121.302727,322.203857 116.880157,310.115814 111.487114,298.818695 
	C109.594147,294.853394 106.000069,292.628571 102.524117,294.297699 
	C100.762611,295.143524 99.002602,295.992493 96.083763,297.397522 
	C98.414818,304.235840 100.175278,311.685638 103.447250,318.398712 
	C107.220253,326.139801 111.994858,333.463562 116.949913,340.537445 
	C121.772614,347.422363 127.102364,354.005798 132.722153,360.260986 
	C136.873779,364.882019 141.626373,369.044434 146.509644,372.907532 
	C153.584412,378.504242 160.666687,384.240326 168.394760,388.822357 
	C176.856049,393.839081 185.805191,398.279938 195.008942,401.722778 
	C203.024673,404.721252 211.666046,406.093323 220.082413,407.951019 
	C223.263336,408.653076 226.593140,408.663239 229.846939,409.056213 
	C237.380447,409.966034 244.909012,410.917053 253.000000,411.920898 
	C253.000000,408.911591 252.998062,407.283264 253.000336,405.654968 
	C253.011475,397.680969 252.311035,397.056030 244.064346,396.970398 
	C241.276764,396.941498 238.445175,396.818909 235.716476,396.302032 
	C228.862717,395.003906 222.032623,393.557587 215.238571,391.975159 
	C210.183792,390.797882 205.131180,389.523376 200.209564,387.893585 
	C196.978012,386.823456 193.967361,385.072601 190.883026,383.574585 
	C185.741669,381.077454 180.513138,378.731323 175.527420,375.951904 
	C172.013916,373.993225 168.841736,371.422333 164.768478,368.957275 
M90.404617,172.898865 
	C87.945030,178.082352 84.951012,183.091537 83.186592,188.501740 
	C81.637260,193.252411 84.290710,196.564224 89.048195,197.973557 
	C93.769249,199.372101 95.525772,195.784439 96.833260,192.809036 
	C100.860023,183.645508 104.992638,174.685364 110.626549,166.255402 
	C116.742226,157.104538 122.929070,148.281235 130.704590,140.368683 
	C139.605087,131.311310 148.871490,122.701317 159.280167,115.590981 
	C166.266418,110.818558 174.339706,107.581062 182.077347,103.980736 
	C189.835678,100.370781 197.781082,97.162880 206.228958,93.527229 
	C205.927155,91.605431 205.701126,89.006699 205.089432,86.502167 
	C203.625687,80.509109 201.884827,79.704201 196.087570,81.936424 
	C193.951721,82.758827 191.690475,83.289375 189.621216,84.244926 
	C181.279739,88.096886 172.920288,91.922005 164.709290,96.039848 
	C159.828674,98.487488 155.026199,101.190163 150.525711,104.270714 
	C145.236603,107.891068 140.145020,111.848976 135.273010,116.017273 
	C129.156113,121.250664 122.917747,126.454521 117.525810,132.392151 
	C111.804588,138.692383 106.658028,145.599808 101.923813,152.685272 
	C97.775322,158.894104 94.545975,165.717056 90.404617,172.898865 
M280.076385,93.080284 
	C270.188019,92.600784 260.299683,92.121277 249.378067,91.591675 
	C249.592484,95.531898 249.493729,98.697632 250.063858,101.737923 
	C250.291199,102.950218 251.839844,104.534363 253.057587,104.828369 
	C257.172546,105.821907 261.412415,106.908455 265.598022,106.883163 
	C277.538849,106.811012 288.792297,110.169960 300.152954,113.051376 
	C303.303070,113.850342 306.457611,114.876434 309.378387,116.280373 
	C314.339142,118.664902 319.198303,121.291481 323.950165,124.072624 
	C330.517365,127.916252 337.395325,131.428833 343.322052,136.117416 
	C351.167633,142.324020 358.424133,149.328247 365.515533,156.408600 
	C368.260681,159.149445 370.730042,159.856003 373.474396,157.645584 
	C377.391724,154.490387 378.026306,149.696365 375.202454,146.649231 
	C371.250610,142.384857 367.375854,137.977188 362.957153,134.234039 
	C356.225800,128.531815 349.279907,123.019859 342.002228,118.045860 
	C336.323151,114.164444 329.959290,111.296333 323.973846,107.849236 
	C313.923279,102.060944 302.788330,99.254501 291.809174,96.035233 
	C288.223022,94.983719 284.513397,94.353394 280.076385,93.080284 
M116.008583,192.669907 
	C118.023460,189.077911 120.205612,185.568192 122.020660,181.877914 
	C126.745193,172.272186 133.035446,163.796951 140.246887,155.957458 
	C144.020599,151.855087 147.929794,147.871033 151.568634,143.653091 
	C154.033981,140.795395 153.520050,135.699097 150.875885,133.367355 
	C148.305893,131.100998 143.498459,131.504364 140.945450,134.158035 
	C136.643829,138.629272 131.961258,142.789642 128.084427,147.600876 
	C122.307175,154.770599 116.462814,162.022659 111.811165,169.924957 
	C107.074944,177.970947 103.982231,186.965393 99.738670,195.325653 
	C95.358131,203.955795 94.052528,213.376160 92.117340,222.610519 
	C91.080528,227.557983 91.496864,232.791885 90.867455,237.847977 
	C90.254501,242.771988 89.144180,247.634064 88.230286,252.643646 
	C94.034454,252.643646 98.428856,252.643646 102.097404,252.643646 
	C103.133339,247.682220 104.235497,243.242081 104.962212,238.741333 
	C106.304184,230.430222 107.430084,222.084152 108.636314,213.751236 
	C108.894012,211.971039 108.757950,210.042252 109.411194,208.427902 
	C111.450859,203.387375 113.781693,198.464676 116.008583,192.669907 
z"/>
<path fill="#017FFD" opacity="1.000000" stroke="none" 
	d="
M107.998306,248.005463 
	C108.332237,240.579788 107.946465,233.519165 109.201538,226.763382 
	C110.468658,219.942749 113.344841,213.418396 115.550789,206.775772 
	C116.987244,202.450287 118.125298,197.977295 120.040779,193.870621 
	C122.918633,187.700699 126.112122,181.642914 129.646271,175.825958 
	C132.190170,171.638855 135.289474,167.730469 138.526642,164.035583 
	C145.092819,156.541000 150.984299,147.997787 158.865662,142.223038 
	C169.944351,134.105576 180.913239,125.260994 194.518295,121.146263 
	C203.716858,118.364243 212.749771,114.982689 222.035583,112.552628 
	C237.456329,108.517052 253.298050,109.949104 268.977844,110.158920 
	C275.109039,110.240974 281.317932,111.618454 287.308594,113.130363 
	C293.458466,114.682457 299.474731,116.892822 305.383850,119.233253 
	C311.245636,121.554916 317.243011,123.845123 322.567627,127.140121 
	C330.735504,132.194611 338.515533,137.915863 346.190033,143.711853 
	C350.498932,146.966080 354.501862,150.714279 358.224701,154.636627 
	C365.415741,162.212997 371.493439,170.603378 377.240173,179.400879 
	C383.037598,188.276031 386.504089,197.946625 390.046997,207.634460 
	C392.124512,213.315216 392.457672,219.607956 394.059357,225.493744 
	C398.296265,241.062927 396.280914,256.968170 395.499725,272.535858 
	C394.982544,282.842529 392.183594,293.619476 386.704742,303.167664 
	C383.954987,307.959808 382.598328,313.544861 379.905151,318.377625 
	C376.822052,323.910004 372.689758,328.850342 369.487122,334.325104 
	C364.041473,343.634186 356.498383,351.065186 348.442871,357.901794 
	C337.176544,367.463348 325.091827,376.143036 311.320618,381.617920 
	C302.936951,384.950958 293.995270,387.080688 285.157501,389.368011 
	C266.842407,394.108246 248.505875,391.401642 230.229141,391.658783 
	C223.203552,391.757599 216.121841,388.064117 209.070786,386.080597 
	C205.157745,384.979797 201.091461,384.224579 197.382874,382.638702 
	C190.282715,379.602478 182.881439,376.843079 176.524750,372.593231 
	C166.330582,365.777802 156.595673,358.182190 147.258392,350.222229 
	C143.272583,346.824341 141.482773,340.807007 137.438507,337.531433 
	C131.354279,332.603668 128.767624,325.625244 125.060028,319.442963 
	C121.040489,312.740631 118.589729,305.045044 115.871185,297.629974 
	C113.300011,290.616882 110.366600,283.545654 109.234764,276.245392 
	C107.900734,267.640900 108.331360,258.762756 108.000755,250.003113 
	C107.981918,249.504166 107.998306,249.003891 107.998306,248.005463 
M259.429138,214.123688 
	C254.980347,215.757629 250.531540,217.391571 246.350159,218.192383 
	C246.758987,216.932846 247.243729,215.692322 247.564606,214.410767 
	C250.214386,203.828171 242.503937,193.679459 232.255798,193.940475 
	C211.794922,194.461609 191.331421,194.936172 170.866043,195.205399 
	C154.703110,195.418015 152.744339,197.152084 152.677521,213.222641 
	C152.541855,245.862167 152.459137,278.501923 152.370178,311.141632 
	C152.342773,321.193604 153.817596,323.055573 163.696014,325.649780 
	C164.177612,325.776245 164.675812,325.886993 165.170547,325.908905 
	C175.453720,326.365204 185.735367,327.039856 196.022293,327.135834 
	C200.016098,327.173096 202.925354,328.194305 205.594543,331.152618 
	C209.042252,334.973846 212.757355,338.592682 216.671890,341.929626 
	C217.809860,342.899658 220.311539,343.325592 221.695908,342.771423 
	C228.320969,340.119293 234.721268,336.910461 241.316376,334.176788 
	C244.639328,332.799438 245.398575,331.044861 243.240463,328.191040 
	C240.729202,324.870270 241.766418,322.057251 243.516006,318.608673 
	C245.030319,315.623840 244.957199,311.833618 246.099518,308.007355 
	C249.289642,305.856506 252.479767,303.705627 255.727463,302.452515 
	C255.152832,310.521851 254.578201,318.591187 253.988388,326.873810 
	C264.075073,326.873810 273.516479,326.954559 282.955200,326.830872 
	C286.348389,326.786407 287.075562,324.375458 287.309204,321.364380 
	C288.068329,311.581573 289.207001,301.826752 289.873749,292.038940 
	C290.112640,288.532318 291.527100,287.514557 294.813538,287.534851 
	C300.135620,287.567627 305.538757,287.726837 310.761322,286.904022 
	C315.973236,286.082855 316.802887,287.933899 316.855103,292.635651 
	C316.969513,302.934723 317.679169,313.233276 318.426910,323.511597 
	C318.521576,324.812714 320.275482,327.037689 321.306580,327.064453 
	C331.594543,327.331299 341.892181,327.226379 352.737366,327.226379 
	C352.737366,323.860229 352.779846,320.901703 352.730865,317.944672 
	C352.223724,287.322906 351.413147,256.702026 351.348694,226.079498 
	C351.327606,216.062576 349.603485,207.188736 343.541840,199.057236 
	C341.508698,196.329834 339.720215,195.062668 336.329315,195.184952 
	C317.204468,195.874527 298.071350,196.332230 278.945068,196.986832 
	C275.305450,197.111404 271.603729,197.422165 268.071777,198.249420 
	C261.822571,199.713104 257.574615,208.407837 259.429138,214.123688 
z"/>
<path fill="#007FFE" opacity="1.000000" stroke="none" 
	d="
M348.933594,382.074860 
	C353.245575,383.459625 354.841827,378.895416 358.043304,377.933197 
	C360.559753,377.176941 363.775269,375.660706 365.644897,376.582397 
	C368.261749,377.872406 370.190521,380.947754 371.816406,383.622375 
	C372.307465,384.430206 371.244110,387.064789 370.166412,387.804657 
	C361.679749,393.631317 353.203857,399.518433 344.344299,404.741730 
	C338.184509,408.373352 331.444672,411.031494 324.924896,414.039734 
	C316.056335,418.131744 307.034241,421.717560 297.245544,423.089508 
	C292.158325,423.802521 287.087738,424.803223 282.103241,426.048706 
	C264.701385,430.396973 247.047684,427.206177 229.527679,427.796539 
	C222.949097,428.018188 216.102005,426.652130 209.721313,424.815094 
	C200.955414,422.291382 192.451294,418.795502 183.957260,415.409454 
	C176.632080,412.489319 169.171280,409.684998 162.330460,405.834534 
	C154.807022,401.599823 147.967545,396.161865 140.750824,391.367493 
	C130.014511,384.234863 121.373650,374.839691 112.924767,365.318542 
	C108.428429,360.251526 104.627419,354.534058 100.797279,348.916107 
	C92.229126,336.348450 85.439415,322.829468 80.832306,308.342743 
	C78.393623,300.674500 77.430939,292.525543 74.848145,284.917389 
	C71.950661,276.382263 72.143326,267.739349 71.946152,259.014954 
	C71.884056,256.267303 71.197510,253.533783 70.734772,250.369934 
	C75.850281,250.369934 80.581863,250.369934 85.477791,250.369934 
	C85.961494,255.580887 86.409073,260.942047 86.969048,266.291473 
	C87.593269,272.254669 87.734703,278.349548 89.141685,284.130219 
	C91.144173,292.357544 93.669342,300.524109 96.777206,308.398529 
	C100.394646,317.564056 104.494148,326.593384 109.133530,335.281799 
	C112.038071,340.721313 115.893867,345.818024 120.078529,350.374512 
	C128.788681,359.858582 137.739319,369.160126 147.123566,377.969482 
	C151.439209,382.020782 156.950104,384.829529 162.026794,388.030823 
	C167.175919,391.277832 172.378235,394.459198 177.710938,397.389648 
	C181.029800,399.213409 184.580368,400.656952 188.122513,402.023376 
	C193.600723,404.136688 199.063766,406.393036 204.711731,407.935059 
	C211.069901,409.670990 217.689972,410.430511 224.083572,412.057190 
	C240.760117,416.300140 257.681671,413.516754 274.459229,413.688995 
	C281.822296,413.764557 289.390686,411.002808 296.562592,408.617523 
	C308.007599,404.811005 319.391937,400.680878 330.424805,395.829895 
	C336.867493,392.997101 342.597015,388.528351 348.586121,384.699738 
	C349.183563,384.317841 349.354156,383.268250 349.359802,382.269043 
	C348.996735,382.009583 348.933594,382.074860 348.933594,382.074860 
z"/>
<path fill="#007FFE" opacity="1.000000" stroke="none" 
	d="
M283.486633,91.646614 
	C282.371094,90.927681 281.651672,90.120758 280.876892,90.063553 
	C274.954803,89.626335 268.992462,89.590569 263.102325,88.912094 
	C258.923248,88.430710 254.837082,87.142914 250.296066,86.122131 
	C250.296066,82.300987 250.296066,77.901253 250.296066,72.428757 
	C254.192947,73.338150 257.714233,74.593254 261.317902,74.909576 
	C268.553711,75.544708 275.903351,75.168022 283.075317,76.156815 
	C289.003204,76.974068 294.762939,79.085739 300.560699,80.750931 
	C306.441956,82.440094 312.425385,83.913147 318.098328,86.153641 
	C325.588074,89.111679 332.970428,92.433617 340.115448,96.144890 
	C346.295868,99.355141 352.188049,103.165039 358.002716,107.019081 
	C361.962036,109.643364 365.684906,112.663757 369.303802,115.752739 
	C374.348877,120.059059 379.435669,124.362450 384.066376,129.095810 
	C389.012177,134.151276 393.554260,139.617920 398.058563,145.081543 
	C400.071930,147.523727 401.688995,150.324707 403.265808,153.088425 
	C407.414093,160.359238 411.822723,167.517410 415.414948,175.059891 
	C419.362732,183.348892 422.858307,191.894958 425.930389,200.549301 
	C430.205414,212.592514 431.221161,225.184204 431.030060,237.914551 
	C430.880005,247.910995 431.255890,257.920135 430.919281,267.907501 
	C430.648438,275.942902 430.056396,284.014862 428.838440,291.952698 
	C428.140717,296.500031 426.271576,300.984131 424.276245,305.186371 
	C421.781281,310.440857 417.412750,307.397156 414.063354,306.366730 
	C410.392883,305.237549 410.436615,301.692352 411.252045,298.602203 
	C412.649872,293.305054 415.060699,288.187988 415.802521,282.823334 
	C417.307953,271.936584 418.311584,260.951904 418.876404,249.974380 
	C419.214050,243.412323 419.065033,236.645248 417.826904,230.222427 
	C415.745636,219.425629 413.232422,208.626968 409.769043,198.205246 
	C406.171509,187.379700 400.499420,177.441895 394.676300,167.527603 
	C389.819702,159.258850 384.339630,151.385605 378.157013,144.441025 
	C372.464447,138.046875 365.943634,132.020355 358.998291,126.509979 
	C351.946228,120.914955 344.338928,116.458984 336.986572,111.492340 
	C328.592377,105.821930 319.437714,101.758942 309.901428,98.347099 
	C301.405182,95.307388 293.053467,91.987617 283.486633,91.646614 
z"/>
<path fill="#007FFE" opacity="1.000000" stroke="none" 
	d="
M349.029602,381.978210 
	C346.234344,383.231720 343.319611,384.356659 340.594727,385.832153 
	C333.096710,389.892365 325.807617,394.360229 318.177948,398.147217 
	C313.854584,400.293091 309.028046,401.428925 304.417450,402.988068 
	C303.810822,403.193237 302.887268,402.975128 302.538757,403.350586 
	C298.873901,407.299042 296.451569,404.546722 294.452484,401.666656 
	C292.550568,398.926636 294.124634,392.274261 296.870453,391.108887 
	C303.654694,388.229553 310.709778,385.940399 317.334900,382.747742 
	C323.750214,379.656189 330.227783,376.338135 335.849152,372.036407 
	C344.757721,365.219299 353.265289,357.802643 361.377136,350.048218 
	C366.216003,345.422607 370.317169,339.903198 374.134094,334.361420 
	C378.962006,327.351685 383.604187,320.137024 387.489014,312.580200 
	C390.342804,307.029144 391.970367,300.825226 393.923462,294.840179 
	C395.741394,289.269196 397.456635,283.649170 398.847107,277.960297 
	C399.618958,274.802643 399.644379,271.461060 399.987701,268.200439 
	C400.612091,262.270355 401.222717,256.338806 401.857758,250.228546 
	C406.314911,250.228546 410.271606,250.228546 415.009369,250.228546 
	C413.927277,258.349213 416.637695,266.480255 413.354462,274.835052 
	C411.193085,280.335052 411.565063,286.779144 409.878387,292.529449 
	C407.455841,300.788513 404.359985,308.866608 401.218750,316.891724 
	C399.530334,321.205231 397.440613,325.427734 395.010132,329.369568 
	C391.185669,335.572296 387.240875,341.753662 382.760803,347.485901 
	C377.246582,354.541412 371.453186,361.444885 365.171356,367.813293 
	C360.263763,372.788544 354.427094,376.847351 348.968445,381.694122 
	C348.933594,382.074860 348.996735,382.009583 349.029602,381.978210 
z"/>
<path fill="#007FFE" opacity="1.000000" stroke="none" 
	d="
M165.142822,369.041016 
	C168.841736,371.422333 172.013916,373.993225 175.527420,375.951904 
	C180.513138,378.731323 185.741669,381.077454 190.883026,383.574585 
	C193.967361,385.072601 196.978012,386.823456 200.209564,387.893585 
	C205.131180,389.523376 210.183792,390.797882 215.238571,391.975159 
	C222.032623,393.557587 228.862717,395.003906 235.716476,396.302032 
	C238.445175,396.818909 241.276764,396.941498 244.064346,396.970398 
	C252.311035,397.056030 253.011475,397.680969 253.000336,405.654968 
	C252.998062,407.283264 253.000000,408.911591 253.000000,411.920898 
	C244.909012,410.917053 237.380447,409.966034 229.846939,409.056213 
	C226.593140,408.663239 223.263336,408.653076 220.082413,407.951019 
	C211.666046,406.093323 203.024673,404.721252 195.008942,401.722778 
	C185.805191,398.279938 176.856049,393.839081 168.394760,388.822357 
	C160.666687,384.240326 153.584412,378.504242 146.509644,372.907532 
	C141.626373,369.044434 136.873779,364.882019 132.722153,360.260986 
	C127.102364,354.005798 121.772614,347.422363 116.949913,340.537445 
	C111.994858,333.463562 107.220253,326.139801 103.447250,318.398712 
	C100.175278,311.685638 98.414818,304.235840 96.083763,297.397522 
	C99.002602,295.992493 100.762611,295.143524 102.524117,294.297699 
	C106.000069,292.628571 109.594147,294.853394 111.487114,298.818695 
	C116.880157,310.115814 121.302727,322.203857 128.562744,332.196655 
	C137.044815,343.871521 148.060715,353.719513 158.126266,364.217285 
	C159.976074,366.146515 162.536224,367.394714 165.142822,369.041016 
z"/>
<path fill="#007FFE" opacity="1.000000" stroke="none" 
	d="
M90.657623,172.583801 
	C94.545975,165.717056 97.775322,158.894104 101.923813,152.685272 
	C106.658028,145.599808 111.804588,138.692383 117.525810,132.392151 
	C122.917747,126.454521 129.156113,121.250664 135.273010,116.017273 
	C140.145020,111.848976 145.236603,107.891068 150.525711,104.270714 
	C155.026199,101.190163 159.828674,98.487488 164.709290,96.039848 
	C172.920288,91.922005 181.279739,88.096886 189.621216,84.244926 
	C191.690475,83.289375 193.951721,82.758827 196.087570,81.936424 
	C201.884827,79.704201 203.625687,80.509109 205.089432,86.502167 
	C205.701126,89.006699 205.927155,91.605431 206.228958,93.527229 
	C197.781082,97.162880 189.835678,100.370781 182.077347,103.980736 
	C174.339706,107.581062 166.266418,110.818558 159.280167,115.590981 
	C148.871490,122.701317 139.605087,131.311310 130.704590,140.368683 
	C122.929070,148.281235 116.742226,157.104538 110.626549,166.255402 
	C104.992638,174.685364 100.860023,183.645508 96.833260,192.809036 
	C95.525772,195.784439 93.769249,199.372101 89.048195,197.973557 
	C84.290710,196.564224 81.637260,193.252411 83.186592,188.501740 
	C84.951012,183.091537 87.945030,178.082352 90.657623,172.583801 
z"/>
<path fill="#007FFE" opacity="1.000000" stroke="none" 
	d="
M280.468323,93.305359 
	C284.513397,94.353394 288.223022,94.983719 291.809174,96.035233 
	C302.788330,99.254501 313.923279,102.060944 323.973846,107.849236 
	C329.959290,111.296333 336.323151,114.164444 342.002228,118.045860 
	C349.279907,123.019859 356.225800,128.531815 362.957153,134.234039 
	C367.375854,137.977188 371.250610,142.384857 375.202454,146.649231 
	C378.026306,149.696365 377.391724,154.490387 373.474396,157.645584 
	C370.730042,159.856003 368.260681,159.149445 365.515533,156.408600 
	C358.424133,149.328247 351.167633,142.324020 343.322052,136.117416 
	C337.395325,131.428833 330.517365,127.916252 323.950165,124.072624 
	C319.198303,121.291481 314.339142,118.664902 309.378387,116.280373 
	C306.457611,114.876434 303.303070,113.850342 300.152954,113.051376 
	C288.792297,110.169960 277.538849,106.811012 265.598022,106.883163 
	C261.412415,106.908455 257.172546,105.821907 253.057587,104.828369 
	C251.839844,104.534363 250.291199,102.950218 250.063858,101.737923 
	C249.493729,98.697632 249.592484,95.531898 249.378067,91.591675 
	C260.299683,92.121277 270.188019,92.600784 280.468323,93.305359 
z"/>
<path fill="#007FFE" opacity="1.000000" stroke="none" 
	d="
M116.004120,193.083099 
	C113.781693,198.464676 111.450859,203.387375 109.411194,208.427902 
	C108.757950,210.042252 108.894012,211.971039 108.636314,213.751236 
	C107.430084,222.084152 106.304184,230.430222 104.962212,238.741333 
	C104.235497,243.242081 103.133339,247.682220 102.097404,252.643646 
	C98.428856,252.643646 94.034454,252.643646 88.230286,252.643646 
	C89.144180,247.634064 90.254501,242.771988 90.867455,237.847977 
	C91.496864,232.791885 91.080528,227.557983 92.117340,222.610519 
	C94.052528,213.376160 95.358131,203.955795 99.738670,195.325653 
	C103.982231,186.965393 107.074944,177.970947 111.811165,169.924957 
	C116.462814,162.022659 122.307175,154.770599 128.084427,147.600876 
	C131.961258,142.789642 136.643829,138.629272 140.945450,134.158035 
	C143.498459,131.504364 148.305893,131.100998 150.875885,133.367355 
	C153.520050,135.699097 154.033981,140.795395 151.568634,143.653091 
	C147.929794,147.871033 144.020599,151.855087 140.246887,155.957458 
	C133.035446,163.796951 126.745193,172.272186 122.020660,181.877914 
	C120.205612,185.568192 118.023460,189.077911 116.004120,193.083099 
z"/>
<path fill="#F4C518" opacity="1.000000" stroke="none" 
	d="
M245.585724,308.399353 
	C244.957199,311.833618 245.030319,315.623840 243.516006,318.608673 
	C241.766418,322.057251 240.729202,324.870270 243.240463,328.191040 
	C245.398575,331.044861 244.639328,332.799438 241.316376,334.176788 
	C234.721268,336.910461 228.320969,340.119293 221.695908,342.771423 
	C220.311539,343.325592 217.809860,342.899658 216.671890,341.929626 
	C212.757355,338.592682 209.042252,334.973846 205.594543,331.152618 
	C202.925354,328.194305 200.016098,327.173096 196.022293,327.135834 
	C185.735367,327.039856 175.453720,326.365204 165.170547,325.908905 
	C164.675812,325.886993 164.177612,325.776245 163.696014,325.649780 
	C153.817596,323.055573 152.342773,321.193604 152.370178,311.141632 
	C152.459137,278.501923 152.541855,245.862167 152.677521,213.222641 
	C152.744339,197.152084 154.703110,195.418015 170.866043,195.205399 
	C191.331421,194.936172 211.794922,194.461609 232.255798,193.940475 
	C242.503937,193.679459 250.214386,203.828171 247.564606,214.410767 
	C247.243729,215.692322 246.758987,216.932846 245.944244,218.694397 
	C243.442474,220.950790 241.346634,222.705200 238.425186,225.150711 
	C236.898315,218.768936 235.629944,213.467606 234.361572,208.166275 
	C233.849457,208.256058 233.337341,208.345856 232.825226,208.435638 
	C230.511337,217.891891 234.778900,228.271652 229.631149,238.410919 
	C228.042450,236.137665 227.135849,234.840424 226.168762,233.166992 
	C225.018448,232.019226 223.928619,231.247665 221.571106,229.578613 
	C222.069672,233.547501 222.359177,235.852158 222.679916,238.575134 
	C224.878418,246.643921 224.264893,254.089111 220.861694,261.369751 
	C220.385330,261.528595 220.255264,261.747894 220.135437,262.132019 
	C219.998764,262.209656 219.929657,262.516327 219.547882,262.621399 
	C218.741394,263.025208 218.316711,263.323914 217.756866,263.612549 
	C217.425766,263.688965 217.345993,263.837921 217.011902,264.111328 
	C216.410751,264.270691 216.180069,264.368103 215.569672,264.436829 
	C214.185837,264.355774 213.181717,264.303406 212.165985,263.766663 
	C212.154373,250.344604 212.154373,237.406982 212.154373,223.884827 
	C203.686646,224.694977 196.189301,225.412308 188.775757,226.121597 
	C188.775757,250.895767 188.775757,275.107697 188.775757,299.311646 
	C196.617279,299.311646 204.039993,299.311646 211.731689,299.311646 
	C211.731689,291.019257 211.731689,283.056335 211.888229,274.901947 
	C213.362305,272.797760 214.679840,270.885101 216.277557,268.961914 
	C216.969360,268.612762 217.380997,268.274109 218.181915,267.870605 
	C219.080566,267.675110 219.589951,267.544495 220.346252,267.550964 
	C220.778473,267.721466 220.963760,267.754883 221.338074,268.092102 
	C225.146484,273.159088 225.855011,278.533813 223.575256,283.849701 
	C221.363403,289.007263 222.986801,293.737518 224.322937,298.401886 
	C226.052933,304.441132 232.247498,304.836426 237.235245,307.193512 
	C238.347519,307.615265 239.163666,307.885254 240.282410,308.358337 
	C242.251907,308.507416 243.918823,308.453400 245.585724,308.399353 
z"/>
<path fill="#F4C618" opacity="1.000000" stroke="none" 
	d="
M260.130066,213.864380 
	C257.574615,208.407837 261.822571,199.713104 268.071777,198.249420 
	C271.603729,197.422165 275.305450,197.111404 278.945068,196.986832 
	C298.071350,196.332230 317.204468,195.874527 336.329315,195.184952 
	C339.720215,195.062668 341.508698,196.329834 343.541840,199.057236 
	C349.603485,207.188736 351.327606,216.062576 351.348694,226.079498 
	C351.413147,256.702026 352.223724,287.322906 352.730865,317.944672 
	C352.779846,320.901703 352.737366,323.860229 352.737366,327.226379 
	C341.892181,327.226379 331.594543,327.331299 321.306580,327.064453 
	C320.275482,327.037689 318.521576,324.812714 318.426910,323.511597 
	C317.679169,313.233276 316.969513,302.934723 316.855103,292.635651 
	C316.802887,287.933899 315.973236,286.082855 310.761322,286.904022 
	C305.538757,287.726837 300.135620,287.567627 294.813538,287.534851 
	C291.527100,287.514557 290.112640,288.532318 289.873749,292.038940 
	C289.207001,301.826752 288.068329,311.581573 287.309204,321.364380 
	C287.075562,324.375458 286.348389,326.786407 282.955200,326.830872 
	C273.516479,326.954559 264.075073,326.873810 253.988388,326.873810 
	C254.578201,318.591187 255.152832,310.521851 255.883850,301.709167 
	C256.473450,299.380463 256.908997,297.795746 257.339386,296.209625 
	C258.992249,290.118073 268.082489,286.171936 273.721863,289.395081 
	C273.535828,294.735565 273.317169,299.751068 273.412354,304.760681 
	C273.427338,305.551483 274.776123,306.459045 275.693146,306.998077 
	C275.945801,307.146606 277.418182,306.133301 277.398285,305.695496 
	C277.098419,299.092712 276.642670,292.496979 276.191620,285.588745 
	C276.037048,284.880829 275.914429,284.483734 275.879456,283.689941 
	C276.425171,281.223572 276.883240,279.153931 277.495911,276.907318 
	C277.819763,276.456390 277.906494,276.158386 278.182739,275.721619 
	C278.692322,275.091095 278.929840,274.575348 279.127747,274.071228 
	C279.088196,274.082886 279.120483,274.158844 279.400574,274.042877 
	C280.096436,273.268860 280.512207,272.610809 280.960052,271.970032 
	C280.992157,271.987274 280.960358,271.921692 281.200562,271.854675 
	C281.768463,271.605713 281.920807,271.327606 282.115967,270.809387 
	C282.533752,270.383179 282.733337,270.101013 283.162079,269.773102 
	C283.679413,269.538086 283.815582,269.271210 283.863586,268.927917 
	C283.927368,268.929077 283.925140,268.801483 284.155945,268.756622 
	C284.701447,268.549316 284.851624,268.291199 285.066956,267.835876 
	C285.524353,267.492798 285.752167,267.251129 286.242798,266.949524 
	C286.697174,266.594421 286.888672,266.299255 287.378296,265.906158 
	C288.468719,265.128998 289.261047,264.449768 290.261505,263.734253 
	C290.747223,263.547363 290.881866,263.314178 291.188843,262.898285 
	C292.224182,261.991638 292.944275,261.185150 294.057495,260.270020 
	C301.983459,260.493958 309.516296,260.826569 316.702759,261.143860 
	C316.702759,255.051636 316.910309,249.580795 316.644073,244.133118 
	C316.380463,238.739914 315.638824,233.370087 315.047638,227.390884 
	C307.341675,227.998962 300.477966,228.540573 293.057892,229.126083 
	C293.057892,233.122742 293.057892,236.594406 292.763611,240.226562 
	C291.676392,241.556900 290.883423,242.726730 289.461945,244.823853 
	C287.417511,239.120728 285.870300,234.167770 283.883148,229.398117 
	C280.125732,220.379333 274.573608,213.644699 263.462128,214.621140 
	C262.381958,214.716064 261.242188,214.132812 260.130066,213.864380 
z"/>
<path fill="#3C5259" opacity="1.000000" stroke="none" 
	d="
M275.791809,284.086639 
	C275.914429,284.483734 276.037048,284.880829 275.895203,285.763611 
	C275.018066,287.188904 274.405396,288.128540 273.792725,289.068146 
	C268.082489,286.171936 258.992249,290.118073 257.339386,296.209625 
	C256.908997,297.795746 256.473450,299.380463 255.855072,301.260284 
	C252.479767,303.705627 249.289642,305.856506 245.842621,308.203369 
	C243.918823,308.453400 242.251907,308.507416 240.294815,307.946106 
	C240.015656,306.232391 240.026672,305.134064 240.417664,303.963989 
	C242.921371,303.364746 245.045135,302.837189 247.890549,302.130402 
	C242.333679,300.473816 242.220230,300.507446 239.638550,304.033264 
	C238.519150,305.081024 237.729141,306.061371 236.939133,307.041748 
	C232.247498,304.836426 226.052933,304.441132 224.322937,298.401886 
	C222.986801,293.737518 221.363403,289.007263 223.575256,283.849701 
	C225.855011,278.533813 225.146484,273.159088 221.334473,267.870117 
	C221.141830,267.344238 221.085510,266.904846 221.012085,266.534729 
	C220.602341,264.948517 220.265991,263.732422 219.929657,262.516327 
	C219.929657,262.516327 219.998764,262.209656 220.294922,262.046143 
	C220.791916,261.741241 220.948578,261.561371 221.061081,261.343048 
	C224.264893,254.089111 224.878418,246.643921 223.014038,238.397461 
	C224.287704,236.382050 225.258469,234.962616 226.229248,233.543198 
	C227.135849,234.840424 228.042450,236.137665 229.631149,238.410919 
	C234.778900,228.271652 230.511337,217.891891 232.825226,208.435638 
	C233.337341,208.345856 233.849457,208.256058 234.361572,208.166275 
	C235.629944,213.467606 236.898315,218.768936 238.425186,225.150711 
	C241.346634,222.705200 243.442474,220.950790 245.810532,219.110962 
	C250.531540,217.391571 254.980347,215.757629 259.779602,213.994034 
	C261.242188,214.132812 262.381958,214.716064 263.462128,214.621140 
	C274.573608,213.644699 280.125732,220.379333 283.883148,229.398117 
	C285.870300,234.167770 287.417511,239.120728 289.461945,244.823853 
	C290.883423,242.726730 291.676392,241.556900 293.081055,240.070114 
	C295.832520,238.833572 297.972260,237.913971 300.916138,236.648773 
	C300.299866,242.111801 297.063629,244.346451 294.062225,246.783722 
	C292.726440,247.868423 291.537933,249.134521 290.030243,250.461105 
	C288.487640,253.084229 287.197388,255.564529 285.757782,258.279968 
	C286.277527,258.953308 286.946655,259.391479 287.854675,259.704865 
	C289.079071,259.271057 290.064575,258.962067 291.497498,258.921234 
	C292.518097,259.585815 293.091217,259.982239 293.664368,260.378662 
	C292.944275,261.185150 292.224182,261.991638 291.030823,263.002625 
	C290.356812,263.365692 290.188751,263.553467 290.053345,263.770508 
	C289.261047,264.449768 288.468719,265.128998 287.140320,266.007019 
	C286.396149,266.473663 286.188049,266.741577 285.979950,267.009491 
	C285.752167,267.251129 285.524353,267.492798 284.870209,267.927307 
	C284.196991,268.291016 284.024078,268.518127 283.925140,268.801483 
	C283.925140,268.801483 283.927368,268.929077 283.673370,269.026978 
	C283.182312,269.303680 283.020172,269.535004 282.932892,269.818817 
	C282.733337,270.101013 282.533752,270.383179 281.905457,270.911926 
	C281.213806,271.351501 281.041718,271.605896 280.960358,271.921692 
	C280.960358,271.921692 280.992157,271.987274 280.651550,272.048431 
	C279.914154,272.792664 279.517303,273.475769 279.120483,274.158844 
	C279.120483,274.158844 279.088196,274.082886 278.877808,274.213989 
	C278.415161,274.842224 278.162933,275.339294 277.910675,275.836395 
	C277.906494,276.158386 277.819763,276.456390 277.157043,277.033752 
	C274.737000,279.375702 272.439606,281.366333 275.791809,284.086639 
z"/>
<path fill="#0981F5" opacity="1.000000" stroke="none" 
	d="
M211.731689,275.093445 
	C211.731689,283.056335 211.731689,291.019257 211.731689,299.311646 
	C204.039993,299.311646 196.617279,299.311646 188.775757,299.311646 
	C188.775757,275.107697 188.775757,250.895767 188.775757,226.121597 
	C196.189301,225.412308 203.686646,224.694977 212.154373,223.884827 
	C212.154373,237.406982 212.154373,250.344604 212.088287,264.055054 
	C212.445862,265.240723 212.869492,265.653503 213.102524,266.357849 
	C210.898987,268.280945 208.703186,269.742096 206.954315,271.619568 
	C206.142517,272.491058 206.199997,274.172302 205.863419,275.486450 
	C207.038895,275.577148 208.218658,275.770935 209.388367,275.722443 
	C210.176804,275.689789 210.951080,275.315125 211.731689,275.093445 
z"/>
<path fill="#416775" opacity="1.000000" stroke="none" 
	d="
M211.888229,274.901947 
	C210.951080,275.315125 210.176804,275.689789 209.388367,275.722443 
	C208.218658,275.770935 207.038895,275.577148 205.863419,275.486450 
	C206.199997,274.172302 206.142517,272.491058 206.954315,271.619568 
	C208.703186,269.742096 210.898987,268.280945 213.356781,266.301483 
	C214.517563,265.457550 215.233475,264.961517 215.949387,264.465515 
	C216.180069,264.368103 216.410751,264.270691 217.112427,264.060181 
	C217.583420,263.947052 217.892014,263.622620 217.892029,263.622620 
	C218.316711,263.323914 218.741394,263.025208 219.547882,262.621399 
	C220.265991,263.732422 220.602341,264.948517 220.835938,266.599609 
	C220.494583,267.115387 220.283279,267.241791 220.099335,267.413879 
	C219.589951,267.544495 219.080566,267.675110 217.914825,267.910461 
	C216.838089,268.334229 216.417725,268.653320 215.997375,268.972412 
	C214.679840,270.885101 213.362305,272.797760 211.888229,274.901947 
z"/>
<path fill="#3E5359" opacity="1.000000" stroke="none" 
	d="
M226.168762,233.166992 
	C225.258469,234.962616 224.287704,236.382050 222.982819,237.979141 
	C222.359177,235.852158 222.069672,233.547501 221.571106,229.578613 
	C223.928619,231.247665 225.018448,232.019226 226.168762,233.166992 
z"/>
<path fill="#335974" opacity="1.000000" stroke="none" 
	d="
M237.235245,307.193512 
	C237.729141,306.061371 238.519150,305.081024 239.655670,304.051025 
	C240.002167,304.001434 240.037689,304.035706 240.037689,304.035706 
	C240.026672,305.134064 240.015656,306.232391 239.992218,307.742981 
	C239.163666,307.885254 238.347519,307.615265 237.235245,307.193512 
z"/>
<path fill="#527577" opacity="1.000000" stroke="none" 
	d="
M215.569672,264.436829 
	C215.233475,264.961517 214.517563,265.457550 213.547394,266.009949 
	C212.869492,265.653503 212.445862,265.240723 212.099915,264.539490 
	C213.181717,264.303406 214.185837,264.355774 215.569672,264.436829 
z"/>
<path fill="#527577" opacity="1.000000" stroke="none" 
	d="
M216.277542,268.961914 
	C216.417725,268.653320 216.838089,268.334229 217.525543,267.975311 
	C217.380997,268.274109 216.969360,268.612762 216.277542,268.961914 
z"/>
<path fill="#527577" opacity="1.000000" stroke="none" 
	d="
M217.756866,263.612549 
	C217.892014,263.622620 217.583420,263.947052 217.482880,263.998169 
	C217.345993,263.837921 217.425766,263.688965 217.756866,263.612549 
z"/>
<path fill="#527577" opacity="1.000000" stroke="none" 
	d="
M220.861694,261.369751 
	C220.948578,261.561371 220.791916,261.741241 220.431580,261.968506 
	C220.255264,261.747894 220.385330,261.528595 220.861694,261.369751 
z"/>
<path fill="#527577" opacity="1.000000" stroke="none" 
	d="
M220.346252,267.550964 
	C220.283279,267.241791 220.494583,267.115387 220.909363,266.969727 
	C221.085510,266.904846 221.141830,267.344238 221.145432,267.566254 
	C220.963760,267.754883 220.778473,267.721466 220.346252,267.550964 
z"/>
<path fill="#0B81F3" opacity="1.000000" stroke="none" 
	d="
M290.282593,250.318283 
	C291.537933,249.134521 292.726440,247.868423 294.062225,246.783722 
	C297.063629,244.346451 300.299866,242.111801 300.916138,236.648773 
	C297.972260,237.913971 295.832520,238.833572 293.375366,239.909607 
	C293.057892,236.594406 293.057892,233.122742 293.057892,229.126083 
	C300.477966,228.540573 307.341675,227.998962 315.047638,227.390884 
	C315.638824,233.370087 316.380463,238.739914 316.644073,244.133118 
	C316.910309,249.580795 316.702759,255.051636 316.702759,261.143860 
	C309.516296,260.826569 301.983459,260.493958 294.057495,260.270020 
	C293.091217,259.982239 292.518097,259.585815 291.693970,258.549377 
	C291.056152,255.378998 290.669373,252.848648 290.282593,250.318283 
z"/>
<path fill="#596F63" opacity="1.000000" stroke="none" 
	d="
M273.721863,289.395081 
	C274.405396,288.128540 275.018066,287.188904 275.927124,286.074463 
	C276.642670,292.496979 277.098419,299.092712 277.398285,305.695496 
	C277.418182,306.133301 275.945801,307.146606 275.693146,306.998077 
	C274.776123,306.459045 273.427338,305.551483 273.412354,304.760681 
	C273.317169,299.751068 273.535828,294.735565 273.721863,289.395081 
z"/>
<path fill="#596F63" opacity="1.000000" stroke="none" 
	d="
M275.879456,283.689941 
	C272.439606,281.366333 274.737000,279.375702 277.002441,277.210693 
	C276.883240,279.153931 276.425171,281.223572 275.879456,283.689941 
z"/>
<path fill="#596F63" opacity="1.000000" stroke="none" 
	d="
M279.400574,274.042877 
	C279.517303,273.475769 279.914154,272.792664 280.619446,272.031189 
	C280.512207,272.610809 280.096436,273.268860 279.400574,274.042877 
z"/>
<path fill="#596F63" opacity="1.000000" stroke="none" 
	d="
M278.182739,275.721619 
	C278.162933,275.339294 278.415161,274.842224 278.917358,274.202332 
	C278.929840,274.575348 278.692322,275.091095 278.182739,275.721619 
z"/>
<path fill="#596F63" opacity="1.000000" stroke="none" 
	d="
M281.200562,271.854675 
	C281.041718,271.605896 281.213806,271.351501 281.687225,271.055969 
	C281.920807,271.327606 281.768463,271.605713 281.200562,271.854675 
z"/>
<path fill="#596F63" opacity="1.000000" stroke="none" 
	d="
M286.242798,266.949524 
	C286.188049,266.741577 286.396149,266.473663 286.842224,266.104919 
	C286.888672,266.299255 286.697174,266.594421 286.242798,266.949524 
z"/>
<path fill="#596F63" opacity="1.000000" stroke="none" 
	d="
M283.162079,269.773102 
	C283.020172,269.535004 283.182312,269.303680 283.609558,269.025818 
	C283.815582,269.271210 283.679413,269.538086 283.162079,269.773102 
z"/>
<path fill="#3E5359" opacity="1.000000" stroke="none" 
	d="
M290.261505,263.734253 
	C290.188751,263.553467 290.356812,263.365692 290.715576,263.102783 
	C290.881866,263.314178 290.747223,263.547363 290.261505,263.734253 
z"/>
<path fill="#596F63" opacity="1.000000" stroke="none" 
	d="
M284.155945,268.756622 
	C284.024078,268.518127 284.196991,268.291016 284.640594,268.028778 
	C284.851624,268.291199 284.701447,268.549316 284.155945,268.756622 
z"/>
<path fill="#D7B92E" opacity="1.000000" stroke="none" 
	d="
M290.030243,250.461105 
	C290.669373,252.848648 291.056152,255.378998 291.246521,258.281219 
	C290.064575,258.962067 289.079071,259.271057 287.704468,259.423492 
	C286.846008,258.859589 286.376587,258.452209 285.907166,258.044830 
	C287.197388,255.564529 288.487640,253.084229 290.030243,250.461105 
z"/>
<path fill="#335974" opacity="1.000000" stroke="none" 
	d="
M239.985046,303.983643 
	C242.220230,300.507446 242.333679,300.473816 247.890549,302.130402 
	C245.045135,302.837189 242.921371,303.364746 240.417664,303.963989 
	C240.037689,304.035706 240.002167,304.001434 239.985046,303.983643 
z"/>
<path fill="#3E5359" opacity="1.000000" stroke="none" 
	d="
M285.757782,258.279968 
	C286.376587,258.452209 286.846008,258.859589 287.465607,259.548309 
	C286.946655,259.391479 286.277527,258.953308 285.757782,258.279968 
z"/>
</svg>