<svg version="1.2" baseProfile="tiny-ps" xmlns="http://www.w3.org/2000/svg" viewBox="0 0 707 353" width="707" height="353">
	<title>Design_sem_nome__10_-removebg-preview</title>
	<style>
		tspan { white-space:pre }
		.shp0 { fill: #007fff } 
		.shp1 { fill: #fdc705 } 
		.shp2 { fill: #394d55 } 
		.shp3 { fill: #3d5058 } 
	</style>
	<g id="Background">
		<path id="Path 0" class="shp0" d="M271 97C271 99.95 271.09 100 276.25 100.02C279.14 100.03 284.43 100.65 288 101.4C291.57 102.15 297.65 104.09 301.5 105.71C305.35 107.32 311.2 110.47 314.5 112.71C317.8 114.94 322.86 119.18 325.75 122.13C328.63 125.08 332.58 129.75 334.53 132.5C336.47 135.25 339.37 140.2 340.99 143.5C342.6 146.8 344.89 153.1 346.07 157.5C347.67 163.43 348.23 168.35 348.22 176.5C348.21 183.43 347.61 189.72 346.6 193.5C345.71 196.8 344.99 200.06 344.99 200.75C345 201.44 346.11 202.11 347.46 202.25C349.73 202.48 350.04 201.97 351.52 195.5C352.41 191.65 353.38 184.9 353.68 180.5C354.04 175.21 353.67 169.28 352.57 163C351.66 157.78 349.34 149.68 347.42 145C345.51 140.32 342.27 134.03 340.22 131.01C338.17 128 333.13 122.12 329 117.95C324.61 113.52 318.39 108.57 314 106.01C309.88 103.61 303.8 100.59 300.5 99.3C297.2 98.02 290.9 96.29 286.5 95.47C282.1 94.65 276.81 93.98 274.75 93.99C271.25 94 271 94.2 271 97ZM245 98.21C243.63 98.8 239.57 100.61 236 102.22C232.43 103.83 226.8 107.09 223.5 109.45C220.2 111.82 215.07 116.17 212.1 119.13C209.12 122.08 205.32 126.53 203.64 129C201.96 131.47 198.88 136.88 196.79 141C193.26 147.98 193.12 148.59 194.75 149.77C195.71 150.46 197.06 151.03 197.75 151.02C198.44 151.01 198.99 150.44 198.98 149.75C198.96 149.06 200.62 145.35 202.65 141.5C204.69 137.65 207.75 132.7 209.45 130.5C211.15 128.3 213.65 125.22 215.02 123.67C216.38 122.11 220.65 118.42 224.5 115.47C228.35 112.52 234.99 108.5 239.25 106.55C243.51 104.6 247.68 103 248.5 103C249.53 103 249.85 102.3 249.51 100.75C249.25 99.51 249.02 98.16 249.01 97.75C249.01 97.34 248.66 97.03 248.25 97.07C247.84 97.1 246.38 97.62 245 98.21ZM271.15 104.61C270.98 107.49 271.01 107.5 278.24 108.15C282.23 108.5 289.1 110 293.5 111.46C297.9 112.93 304.39 116.01 307.91 118.31C311.44 120.62 316.76 124.97 319.72 128C325.11 133.5 325.11 133.5 327.11 131.5C329.1 129.5 329.1 129.5 322.3 122.97C318.56 119.37 312.35 114.58 308.5 112.32C304.65 110.06 297.68 107.05 293 105.64C288.32 104.23 281.53 102.77 277.9 102.4L271.31 101.72L271.15 104.61ZM254.5 112.93C250.65 113.93 245.03 116 242 117.52C238.97 119.05 234.25 121.96 231.5 123.99C228.75 126.02 224.2 130.34 221.38 133.59C218.57 136.84 214.84 142.2 213.09 145.5C211.34 148.8 208.93 154.65 207.73 158.5C205.97 164.11 205.56 167.78 205.64 177C205.72 186.63 206.16 189.76 208.37 196.25C209.81 200.51 212.45 206.59 214.22 209.75C215.99 212.91 220.83 218.88 224.97 223.02C229.83 227.87 234.98 231.85 239.5 234.22C243.35 236.24 248.75 238.63 251.5 239.52C254.27 240.42 261.63 241.38 268 241.67C276.62 242.07 281.19 241.81 286.25 240.6C289.96 239.72 295.14 238.05 297.75 236.89C300.36 235.72 305.2 232.94 308.5 230.69C311.8 228.45 315.85 225.24 317.5 223.56C319.15 221.87 321.92 218.7 323.65 216.5C325.39 214.3 328.2 209.8 329.89 206.5C331.59 203.2 333.89 197.24 334.99 193.25C336.32 188.44 337.01 182.89 337.02 176.75C337.03 169.8 336.41 165.32 334.52 158.75C333.12 153.91 330.1 146.83 327.75 142.91C325.41 139.01 321.02 133.41 318 130.46C314.98 127.52 311.38 124.25 310 123.2C308.63 122.14 304.35 119.65 300.5 117.66C296.65 115.66 290.35 113.36 286.5 112.53C282.65 111.71 275.45 111.05 270.5 111.07C265.15 111.09 258.66 111.85 254.5 112.93ZM215.04 128C211.32 132.31 207.29 138.56 204.56 144.25C202.05 149.48 199.44 156.87 198.56 161.25C197.7 165.51 197 170.8 197 173C197 176.6 197.25 177 199.5 177C201.28 177 202.14 176.35 202.49 174.75C202.75 173.51 202.98 170.93 202.98 169C202.99 167.07 203.68 162.8 204.53 159.5C205.38 156.2 207.32 150.8 208.84 147.5C210.36 144.2 212.9 139.7 214.49 137.5C216.07 135.3 219.43 131.38 221.94 128.8C226.03 124.58 226.35 123.93 225 122.5C224.18 121.63 222.96 120.93 222.29 120.96C221.63 120.98 218.37 124.15 215.04 128ZM161.06 143.75C159.73 145.81 157.83 148.96 156.82 150.75L155 154L160.5 157.76L172.5 146.82C166.3 141.56 164.27 140.02 163.99 140.01C163.71 140.01 162.39 141.69 161.06 143.75ZM28.04 175.96L28 210L69 210C69 198.38 68.55 194.78 68 194.5C67.45 194.22 62.27 193.66 56.49 193.25L45.99 192.5L46 182L60 183C60 169.72 59.66 167.89 58.5 167.5C57.67 167.22 54.52 167 51.5 167L46 167L46 159L66.83 159.5C67.82 147.1 67.97 143.45 67.81 143.39C67.64 143.32 58.63 142.97 47.79 142.6L28.08 141.92L28.04 175.96ZM637.33 143.83C633.47 145.37 633.11 145.84 632.57 150C632.25 152.47 631.99 156.19 631.99 158.25C632 161.02 632.59 162.39 634.25 163.51C635.61 164.42 638.78 165.01 642.25 165.01C647.86 165 648.02 164.92 648.99 161.75C649.95 158.61 650.16 158.51 654.74 158.79C658.62 159.03 659.64 159.5 660.24 161.29C660.64 162.51 660.98 164.74 660.99 166.25C661 168.21 660.49 169 659.25 169.01C658.29 169.01 655.81 169.46 653.75 170.01C650.68 170.82 649.67 171.77 648.14 175.25C646.75 178.45 646.44 180.8 646.89 184.76L647.5 190.02L662.5 190.05C664.45 183.91 665.25 183.32 670.04 182.04C673.04 181.24 676.27 179.67 677.22 178.54C678.66 176.83 678.94 174.26 678.94 162.5C678.95 150.75 678.68 148.14 677.23 146.27C675.69 144.28 674.34 143.97 665 143.49C659.23 143.2 651.58 142.78 648 142.56C643.48 142.29 640.23 142.67 637.33 143.83Z" />
		<path id="Path 1" class="shp1" d="M226.94 144.93C226.18 146.25 225.85 156.4 225.9 176.68L225.98 206.5C232.04 210.05 233.7 210.24 241 209.69L249.5 209.06L258.5 218.13C271.83 212.08 271.96 211.94 270.52 209.75C269.21 207.76 269.22 207.33 270.54 206C271.37 205.18 272.37 201.68 272.77 198.24C273.17 194.8 273.16 191.98 272.75 191.99C272.34 192 270.65 192.9 269 194L266 196C259.02 192.9 257 191.55 257 191C257 190.45 256.55 190 256 190C255.45 190 255 191.35 255 193C255 195.95 254.92 196 249.75 196L244.5 196.01C243.35 167.71 243.28 159.28 243.6 159C243.92 158.72 246.84 158.39 250.09 158.25C254.57 158.06 256 157.64 256 156.5C256 155.68 256.45 155 257 155C257.55 155 258 155.9 258 157C258 158.1 258.45 159 259 159C259.55 159 260.3 158.44 260.68 157.75C261.05 157.06 261.26 153.69 261.16 150.25C261.04 146.54 261.37 144 261.98 144C262.54 144 263 146.25 263 149L263 154C268.43 149.35 270.68 148 271.5 148C272.32 148 273.01 147.66 273.03 147.25C273.05 146.84 272.26 145.72 271.28 144.78C269.71 143.26 267.02 143.05 248.78 143.03C229.33 143 227.99 143.12 226.94 144.93ZM291 143.76C286.32 143.96 281.89 144.65 281.14 145.31C280.03 146.29 280.22 146.85 282.27 148.5C283.64 149.6 285.49 151.96 286.38 153.75C287.27 155.54 288 158.13 288 159.5C288 160.88 288.34 162.21 288.75 162.47C289.16 162.73 290.85 161.62 292.5 160C294.15 158.38 295.84 157.27 296.25 157.53C296.66 157.79 296.77 158.45 296.5 159C296.2 159.61 298.17 160 301.5 160L307 160L307 176C301.19 175.98 298.49 175.75 297.25 175.49C295.18 175.04 295 174.45 295 168L295 161C289.59 165.34 288.11 167.45 288.07 168.75C288 170.89 288.13 170.92 290.5 169.5C292.37 168.38 293.01 168.31 293.03 169.25C293.04 169.94 291.86 171.18 290.4 172C288.95 172.82 286.35 175.24 284.63 177.36C281.94 180.69 281.68 181.5 282.75 183.11C283.44 184.15 284 187.03 284 189.5C284 191.97 283.55 194 283 194C282.45 194 282 191.97 282 189.5C282 186.44 281.51 184.76 280.46 184.25C279.62 183.84 278.55 183.95 278.09 184.5C277.63 185.05 276.97 191.01 276.63 197.75L276 210C284.14 210.02 287.97 209.68 289.77 209.26L293.05 208.5C293.03 197.65 293.36 193.5 293.76 192.28C294.38 190.43 295.47 189.97 300.5 189.48C303.8 189.15 306.59 189.03 306.71 189.19C306.82 189.36 307.27 194.12 307.71 199.76L308.5 210.01L325.5 210.01C323.86 151.16 323.79 150.42 321.42 146.75L319 143C303.89 143.32 295.68 143.57 291 143.76Z" />
		<path id="Path 2" fill-rule="evenodd" class="shp0" d="M379.29 142.72L417.5 144.12L420.16 147.31C422.59 150.22 422.87 151.5 423.45 162C423.93 170.75 423.77 173.81 422.79 174.78C421.74 175.82 421.91 176.47 423.73 178.28C425.79 180.33 425.96 181.43 425.99 204.5L422.74 206.78C419.72 208.91 418.11 209.12 378.99 210.5L379.29 142.72ZM396.77 166.72C397.17 167.39 399.64 168.29 402.27 168.72L407.03 169.5L406.97 158.09C401.18 157.16 398.66 156.73 397.63 156.54C396 156.23 395.77 156.8 395.89 160.84C395.97 163.4 396.36 166.05 396.77 166.72ZM397.04 195.5C405.15 194.2 407.83 193.3 408.23 192.66C408.64 192.02 408.98 189.59 408.98 187.25C409 184.02 408.58 182.9 407.25 182.57C406.29 182.34 403.63 181.85 401.35 181.49L397.21 180.82L397.04 195.5Z" />
		<path id="Path 3" class="shp2" d="M261 149.5C261 152.53 261.45 155 262 155C262.55 155 263 152.53 263 149.5C263 146.47 262.55 144 262 144C261.45 144 261 146.47 261 149.5Z" />
		<path id="Path 4" class="shp3" d="M270.02 148.36C268.01 149.1 264.74 151.82 262.27 154.82C259.92 157.67 257.99 160.79 257.98 161.75C257.97 163.25 257.83 163.28 256.99 162C256.3 160.96 256.23 161.5 256.75 163.77C257.29 166.13 257.15 167.04 256.25 167.02C255.4 167.01 255.05 168.52 255.15 171.75C255.24 174.53 255.97 177.21 256.9 178.21C257.78 179.16 262.1 181.48 266.5 183.37C274.47 186.8 274.51 186.81 277.5 184.98C279.15 183.98 281.96 181.09 283.75 178.58C285.54 176.06 286.66 174.02 286.25 174.04C285.84 174.07 286.03 173.51 286.69 172.79C287.34 172.08 288.02 169.81 288.19 167.75C288.36 165.68 288.95 164 289.5 164.01C290.05 164.02 289.93 163.46 289.23 162.77C288.54 162.07 287.97 160.49 287.98 159.25C287.99 158.01 287.28 155.54 286.39 153.75C285.51 151.96 283.82 149.72 282.64 148.77C281.46 147.82 278.93 147.05 277 147.06C275.07 147.07 271.93 147.65 270.02 148.36Z" />
		<path id="Path 5" class="shp2" d="M255.61 157.25C255.29 158.49 255.02 160.06 255.01 160.75C255.01 161.44 255.45 161.78 256 161.5C256.55 161.22 257.19 161.56 257.42 162.25C257.65 162.94 257.88 161.59 257.92 159.25C257.96 156.91 257.59 155 257.1 155C256.6 155 255.93 156.01 255.61 157.25ZM291.65 161C289.64 163.2 288.34 165.2 288.75 165.43C289.16 165.67 291.19 164.32 293.25 162.43C295.31 160.55 296.77 158.55 296.5 158C296.23 157.45 295.84 157 295.65 157C295.46 157 293.66 158.8 291.65 161Z" />
		<path id="Path 6" fill-rule="evenodd" class="shp0" d="M250.75 158.12C254.46 158.01 255.03 158.29 255.25 160.25C255.39 161.49 255.39 164.64 255.25 167.25C255.11 169.86 254.63 172 254.19 172C253.74 172 251.71 173.46 249.67 175.25C247.63 177.04 245.97 178.84 245.98 179.25C245.99 179.66 246.45 180 247 180C247.55 180 249.34 178.54 250.97 176.75C252.61 174.96 254.19 173.72 254.5 174C254.8 174.28 255.08 176.3 255.13 178.5C255.17 180.7 255.16 185.54 255 196L244 196L244 188.25C244 183.99 243.67 175.71 243.25 169.86C242.54 159.74 242.6 159.21 244.5 158.73C245.6 158.46 248.41 158.18 250.75 158.12ZM149 160L168.5 159.99L167.75 168.74C167.34 173.56 166.67 184.41 166.25 192.85C165.84 201.29 165.28 208.33 165 208.5C164.72 208.66 161.01 209.07 149 210L149 160ZM307 160L307 176L303.25 175.99C301.19 175.98 298.49 175.75 297.25 175.49C295.2 175.04 294.98 174.38 294.83 168.17C294.74 164.41 295.04 161.03 295.5 160.67C295.96 160.3 298.73 160 307 160ZM429.32 159.71L435.91 160.37C440.11 160.79 443.13 161.66 444.24 162.77C445.2 163.72 446.24 166.53 446.55 169C446.85 171.47 447.42 178.07 447.8 183.65C448.19 189.24 448.73 194.05 449 194.34C449.27 194.63 451.37 195.24 457.81 196.5L458.6 180.5C459.2 168.24 459.75 164.1 460.94 162.8C461.96 161.68 465 160.82 477.02 159.5L477.02 178.5C477.01 188.95 476.67 200.32 475.5 210.02L470.25 210.01C467.05 210 464.76 209.51 464.39 208.75C463.91 207.75 463.57 207.75 462.69 208.75C461.92 209.63 457.69 210 448.3 210C438.48 210 434.22 209.61 429 207L429.32 159.71ZM485.5 160.14L499 160.06C508.61 159.99 512.9 160.33 513.88 161.23C514.97 162.24 515.33 162.25 515.63 161.25C515.87 160.43 518.07 160 528 160L528 226.5L524.75 229.02C521.51 231.53 521.42 231.54 485 231L482.46 227.25C480.21 223.94 480 222.93 480.71 218.64C481.14 215.96 481.95 213.37 482.5 212.88C483.05 212.4 486.65 212.11 490.5 212.25C496.93 212.48 497.52 212.68 497.75 214.75C497.96 216.67 498.59 217 502 217C504.2 217 506.68 216.78 507.5 216.5C508.48 216.17 509 214.69 509.01 208.5L497.26 209.28C486.7 209.98 485.31 209.88 483.64 208.28C482.61 207.3 481.41 205.6 480.97 204.5C480.53 203.4 480.05 194.63 479.62 167.5L485.5 160.14ZM498 176C498 193.66 498.08 194 500.25 194.01C501.49 194.02 503.97 193.68 505.77 193.26L509.05 192.5C509.01 178.94 508.66 175.08 508.25 175.18C507.84 175.28 505.36 175.5 502.75 175.68L498 176ZM534.22 159.83L554.36 160.59C574.31 161.34 574.52 161.37 576.81 163.92C579.11 166.48 579.12 166.64 578.5 185.5C578 200.81 577.55 205.04 574.5 210.02L555.75 210.01C541.1 210 536.34 209.67 531 207L530.93 186.45C530.87 169 531.12 165.44 532.54 162.87L534.22 159.83ZM549.13 184.66C549.33 190.25 549.73 195.02 550 195.27C550.27 195.52 552.64 196.01 555.25 196.36L560 197L560 175L548.76 174.5L549.13 184.66ZM589 160.37C593.43 160.76 595.99 161.52 597.05 162.73C597.89 163.7 598.89 166.53 599.25 169C599.61 171.47 600.27 178.31 601.5 194.87L604.5 195.45C606.15 195.76 608.17 196.02 609 196.02C610.24 196.01 610.6 193.38 611.08 180.75C611.49 170.12 612.09 164.84 613.08 163.33C614.23 161.57 615.82 161.04 621.5 160.54C625.35 160.2 628.82 160.28 629.22 160.71C629.62 161.14 629.62 172.41 628.5 210L623 210.02C619.88 210.03 616.95 209.49 616.23 208.77C615.23 207.76 614.97 207.76 614.98 208.75C615 209.69 611.5 209.99 600.75 209.98C588.76 209.96 586.16 209.68 584.37 208.23C582.34 206.59 582.2 205.33 581.54 183.81C581.15 171.34 581.21 160.83 581.67 160.46C582.13 160.09 585.42 160.05 589 160.37ZM102.16 161L121.08 161C131.97 161 140.95 161.44 142.25 162.03C144.09 162.88 144.64 164.21 145.26 169.28C145.67 172.7 146.01 183.26 146 210L139.5 210C134.96 210 133.01 209.62 133.02 208.75C133.03 207.75 132.79 207.75 131.82 208.75C130.96 209.63 126.56 210 117.05 210.01C103.69 210.02 103.45 209.98 97.04 204.5L97.91 193.5C98.69 183.62 99.02 182.32 101.14 180.77C103.05 179.37 105.72 179.04 127 179L127 176.5C127 174.23 126.52 173.95 121.75 173.4C117.35 172.9 116.29 173.1 115.22 174.65C114.08 176.3 113.16 176.41 106.72 175.69C102.75 175.25 99.16 174.69 98.75 174.44C98.34 174.2 97.9 172.68 97.78 171.06C97.66 169.37 98.54 166.6 99.86 164.56L102.16 161ZM116 196C126.67 196 128 195.67 128 194.5C128 193.68 127.78 192.32 127.5 191.5C127.14 190.41 125.5 190 121.5 190C116.06 190 116 190.03 116 193L116 196Z" />
		<path id="Path 7" class="shp2" d="M289.04 170.75C287.32 172.26 286.16 173.61 286.46 173.75C286.76 173.89 288.36 173.21 290.01 172.25C291.67 171.29 293.02 169.94 293.01 169.25C293.01 168.56 292.81 168 292.58 168C292.35 168 290.76 169.24 289.04 170.75ZM248.99 175.3C247.12 177.11 245.68 178.91 245.79 179.3C245.91 179.68 246.51 180 247.12 180C247.74 180 250.05 178.2 252.25 176C255.49 172.76 255.88 172 254.32 172C253.26 172 250.86 173.48 248.99 175.3Z" />
		<path id="Path 8" class="shp0" d="M189.01 180.75C189.02 183.36 189.86 189.55 190.88 194.5C191.9 199.45 194.37 206.99 196.37 211.25C198.36 215.51 201.88 221.59 204.17 224.75C206.46 227.91 210.85 232.89 213.92 235.82C216.99 238.75 222.43 243.1 226 245.49C229.57 247.88 236.1 251.28 240.5 253.04C244.9 254.79 251.76 256.85 255.75 257.61C259.74 258.38 266.49 259.01 270.75 259.01C275.01 259.02 282.1 258.35 286.5 257.53C290.9 256.71 297.43 254.86 301 253.41C304.57 251.97 310.43 249.04 314 246.91C317.57 244.78 321.51 242.13 322.75 241.02C323.99 239.91 325.02 238.66 325.04 238.25C325.07 237.84 324.39 236.94 323.54 236.25C322.26 235.21 320.96 235.73 315.75 239.43C312.31 241.86 306.8 245.06 303.5 246.55C300.2 248.03 296.15 249.65 294.5 250.16C292.85 250.66 289.25 251.53 286.5 252.07C283.75 252.62 276.55 253.07 270.5 253.06C262.63 253.06 257.23 252.46 251.5 250.98C247.1 249.84 240.13 247.15 236 245C231.88 242.85 225.13 238.23 221 234.74C216.88 231.25 211.91 226.17 209.96 223.45C208.01 220.73 205.03 216.03 203.33 213C201.63 209.97 199.07 203.68 197.64 199C196.21 194.32 194.85 187.24 194.62 183.25C194.2 176.22 194.11 176 191.59 176C189.16 176 189 176.3 189.01 180.75ZM339.98 180.25C339.97 182.59 339.29 187.65 338.47 191.5C337.65 195.35 335.72 201.2 334.18 204.5C332.64 207.8 330.01 212.53 328.34 215C326.67 217.47 323.09 221.77 320.4 224.55C317.7 227.33 312.8 231.45 309.5 233.71C306.2 235.97 300.85 238.87 297.6 240.16C294.36 241.45 291.5 242.95 291.24 243.5C290.99 244.05 291.06 245.29 291.39 246.25C291.97 247.91 292.28 247.9 297.25 246.13C300.14 245.1 305.08 242.74 308.24 240.88C311.39 239.02 316.62 235.25 319.85 232.5C323.09 229.75 328.27 224.13 331.35 220C334.44 215.88 338.31 209.13 339.96 205C341.6 200.88 343.36 195.47 343.87 193C344.37 190.53 345.06 185.69 345.39 182.25L346 176C340.14 176 340 176.2 339.98 180.25Z" />
		<path id="Path 9" class="shp1" d="M255.46 178C255.09 178.82 255.09 180.4 255.46 181.5C256.09 183.35 256.2 183.37 257.07 181.75C257.64 180.67 257.64 179.33 257.07 178.25C256.27 176.76 256.04 176.72 255.46 178ZM629.34 184.5C629.35 188.9 629.52 190.47 629.73 188C629.94 185.53 629.94 181.93 629.73 180C629.51 178.07 629.34 180.1 629.34 184.5Z" />
		<path id="Path 10" class="shp2" d="M256.71 181.99C255.77 183.1 254.99 185.01 254.97 186.25C254.96 187.49 255.29 188.17 255.72 187.78C256.15 187.38 257.29 187.49 258.25 188.03C259.21 188.56 260.11 190.01 260.25 191.24C260.4 192.58 261.3 193.62 262.5 193.82C263.61 194.01 264.83 193.46 265.25 192.58C265.82 191.38 266.54 191.22 268.25 191.92C269.49 192.42 271.02 192.54 271.67 192.17C272.31 191.8 273.12 190.38 273.48 189C274.09 186.67 273.65 186.3 266.83 183.5C262.82 181.85 259.28 180.38 258.97 180.24C258.67 180.1 257.65 180.89 256.71 181.99ZM280.64 182.95C280.29 183.53 280.45 184.22 281 184.5C281.55 184.78 282 187.03 282 189.5C282 191.97 282.45 194 283 194C283.55 194 284.08 191.74 284.17 188.98C284.3 185.44 283.9 183.66 282.82 182.93C281.77 182.22 281.09 182.23 280.64 182.95Z" />
		<path id="Path 11" class="shp3" d="M255.56 188C255.25 188.55 255.79 189.9 256.75 191.01C257.71 192.11 258.84 193.01 259.25 193.01C259.66 193 260.03 192.12 260.06 191.04C260.09 189.95 259.22 188.6 258.12 188.03C256.79 187.34 255.93 187.33 255.56 188ZM264.52 193.12C263.17 194.79 263.17 195.06 264.5 195.5C265.32 195.78 266.9 195.44 268 194.75C269.11 194.06 269.95 193.21 269.88 192.87C269.81 192.52 268.92 192.01 267.9 191.74C266.81 191.45 265.41 192.03 264.52 193.12Z" />
		<path id="Path 12" class="shp0" d="M646.61 195.25C646.29 196.49 646.02 199.64 646.01 202.25C646 206.07 646.44 207.29 648.25 208.51C649.49 209.34 652.75 210.03 655.5 210.05C658.34 210.07 661.03 209.53 661.72 208.79C662.39 208.08 663.51 204.97 664.22 201.87C665.32 197.03 665.29 196.01 664 194.58C662.84 193.29 660.76 192.92 654.85 192.96C647.76 193 647.15 193.17 646.61 195.25ZM201.19 197.77C200.18 198.34 200.62 200.18 203.17 206C204.97 210.13 207.81 215.53 209.47 218C211.12 220.47 215.41 225.46 218.99 229.09C222.57 232.71 228.65 237.54 232.5 239.83C236.35 242.11 242.88 245.13 247 246.54C251.13 247.95 257.65 249.59 261.5 250.19C265.35 250.79 269.29 250.99 270.25 250.64C271.33 250.24 271.9 249.14 271.75 247.75C271.52 245.71 270.81 245.44 264 244.83C259.88 244.46 253.13 242.99 249 241.55C244.88 240.11 238.39 237.04 234.59 234.72C230.78 232.4 224.71 227.33 221.09 223.45C217.07 219.15 212.84 213.19 210.25 208.2C207.91 203.69 206 199.32 206 198.5C206 197.68 205.21 197.01 204.25 197.02C203.29 197.02 201.91 197.36 201.19 197.77Z" />
	</g>
</svg>